<svg width="22" height="22" viewBox="0 0 22 22" fill="none" xmlns="http://www.w3.org/2000/svg">
<g opacity="0.4">
<path d="M17.4167 12.8334C17.6092 12.8334 17.7968 12.7729 17.9529 12.6603C18.109 12.5478 18.2258 12.389 18.2866 12.2064L20.12 6.70638C20.1659 6.56857 20.1783 6.42183 20.1564 6.27825C20.1345 6.13467 20.0787 5.99836 19.9938 5.88055C19.9088 5.76274 19.7971 5.6668 19.6678 5.60065C19.5385 5.53449 19.3953 5.50001 19.25 5.50004H6.41671V1.83338C6.41671 1.59026 6.32013 1.3571 6.14822 1.1852C5.97631 1.01329 5.74316 0.91671 5.50004 0.91671H2.75004C2.50693 0.91671 2.27377 1.01329 2.10186 1.1852C1.92995 1.3571 1.83337 1.59026 1.83337 1.83338C1.83337 2.07649 1.92995 2.30965 2.10186 2.48156C2.27377 2.65347 2.50693 2.75004 2.75004 2.75004H4.58337V15.5834C4.58337 15.8265 4.67995 16.0597 4.85186 16.2316C5.02377 16.4035 5.25693 16.5 5.50004 16.5H16.5C16.7432 16.5 16.9763 16.4035 17.1482 16.2316C17.3201 16.0597 17.4167 15.8265 17.4167 15.5834C17.4167 15.3403 17.3201 15.1071 17.1482 14.9352C16.9763 14.7633 16.7432 14.6667 16.5 14.6667H6.41671V12.8334H17.4167ZM5.95837 17.4167C6.23032 17.4167 6.49616 17.4974 6.72228 17.6484C6.9484 17.7995 7.12464 18.0143 7.22871 18.2655C7.33278 18.5168 7.36001 18.7932 7.30695 19.06C7.2539 19.3267 7.12294 19.5717 6.93065 19.764C6.73835 19.9563 6.49335 20.0872 6.22662 20.1403C5.9599 20.1933 5.68343 20.1661 5.43218 20.062C5.18094 19.958 4.96619 19.7817 4.8151 19.5556C4.66402 19.3295 4.58337 19.0637 4.58337 18.7917C4.58337 18.427 4.72824 18.0773 4.9861 17.8194C5.24396 17.5616 5.5937 17.4167 5.95837 17.4167ZM15.125 17.4167C15.397 17.4167 15.6628 17.4974 15.8889 17.6484C16.1151 17.7995 16.2913 18.0143 16.3954 18.2655C16.4994 18.5168 16.5267 18.7932 16.4736 19.06C16.4206 19.3267 16.2896 19.5717 16.0973 19.764C15.905 19.9563 15.66 20.0872 15.3933 20.1403C15.1266 20.1933 14.8501 20.1661 14.5988 20.062C14.3476 19.958 14.1329 19.7817 13.9818 19.5556C13.8307 19.3295 13.75 19.0637 13.75 18.7917C13.75 18.427 13.8949 18.0773 14.1528 17.8194C14.4106 17.5616 14.7604 17.4167 15.125 17.4167Z" fill="#C07E29"/>
</g>
</svg>
