<svg width="12" height="14" viewBox="0 0 12 14" fill="none" xmlns="http://www.w3.org/2000/svg">
<path d="M5.99974 13.6667C7.58736 13.0211 8.94414 11.913 9.89382 10.4864C10.8435 9.05972 11.3422 7.38043 11.3251 5.66667C11.341 4.95714 11.2149 4.25158 10.9544 3.59142C10.6938 2.93127 10.304 2.32982 9.80778 1.8224C9.31158 1.31497 8.71901 0.911792 8.06485 0.636533C7.41069 0.361274 6.70812 0.219482 5.99841 0.219482C5.2887 0.219482 4.58613 0.361274 3.93197 0.636533C3.27781 0.911792 2.68524 1.31497 2.18904 1.8224C1.69284 2.32982 1.30302 2.93127 1.04246 3.59142C0.781907 4.25158 0.655867 4.95714 0.671744 5.66667C0.654852 7.38074 1.15393 9.06025 2.1041 10.4869C3.05428 11.9136 4.41163 13.0215 5.99974 13.6667ZM4.66641 5.66667C4.66641 5.40296 4.74461 5.14518 4.89112 4.92591C5.03763 4.70665 5.24586 4.53575 5.4895 4.43483C5.73313 4.33392 6.00122 4.30751 6.25986 4.35896C6.51851 4.41041 6.75608 4.53739 6.94255 4.72386C7.12902 4.91033 7.25601 5.14791 7.30746 5.40655C7.3589 5.66519 7.3325 5.93328 7.23158 6.17692C7.13067 6.42055 6.95977 6.62879 6.7405 6.7753C6.52124 6.92181 6.26345 7.00001 5.99974 7.00001C5.64612 7.00001 5.30698 6.85953 5.05694 6.60948C4.80689 6.35943 4.66641 6.02029 4.66641 5.66667Z" fill="#212121"/>
</svg>
