<svg width="14" height="14" viewBox="0 0 14 14" fill="none" xmlns="http://www.w3.org/2000/svg">
<path d="M7.00017 0.333252C5.68162 0.333252 4.39269 0.724245 3.29636 1.45679C2.20004 2.18933 1.34555 3.23052 0.840969 4.4487C0.336385 5.66687 0.204362 7.00731 0.461597 8.30052C0.718832 9.59373 1.35377 10.7816 2.28612 11.714C3.21847 12.6463 4.40636 13.2813 5.69956 13.5385C6.99277 13.7957 8.33321 13.6637 9.55139 13.1591C10.7696 12.6545 11.8108 11.8 12.5433 10.7037C13.2758 9.60739 13.6668 8.31846 13.6668 6.99992C13.6668 6.12444 13.4944 5.25753 13.1594 4.4487C12.8243 3.63986 12.3333 2.90493 11.7142 2.28587C11.0952 1.66682 10.3602 1.17575 9.55139 0.840722C8.74255 0.50569 7.87564 0.333252 7.00017 0.333252ZM10.3335 7.66659H7.00017C6.82335 7.66659 6.65379 7.59635 6.52876 7.47132C6.40374 7.3463 6.3335 7.17673 6.3335 6.99992V2.99992C6.3335 2.82311 6.40374 2.65354 6.52876 2.52851C6.65379 2.40349 6.82335 2.33325 7.00017 2.33325C7.17698 2.33325 7.34655 2.40349 7.47157 2.52851C7.59659 2.65354 7.66683 2.82311 7.66683 2.99992V6.33325H10.3335C10.5103 6.33325 10.6799 6.40349 10.8049 6.52851C10.9299 6.65354 11.0002 6.82311 11.0002 6.99992C11.0002 7.17673 10.9299 7.3463 10.8049 7.47132C10.6799 7.59635 10.5103 7.66659 10.3335 7.66659Z" fill="#212121"/>
</svg>
