<svg width="14" height="14" viewBox="0 0 14 14" fill="none" xmlns="http://www.w3.org/2000/svg">
<path d="M13.256 10.8347C13.4118 10.991 13.5285 11.1818 13.5969 11.3916C13.6652 11.6015 13.6831 11.8244 13.6492 12.0425C13.6153 12.2606 13.5306 12.4676 13.4018 12.6468C13.273 12.826 13.1039 12.9724 12.908 13.074C11.7887 13.6722 10.4846 13.8251 9.25733 13.502C6 12.682 1.318 8.00002 0.497996 4.74268C0.174878 3.51538 0.327768 2.2113 0.925996 1.09202C1.02766 0.896151 1.17402 0.726981 1.35323 0.598203C1.53244 0.469426 1.73945 0.384662 1.95751 0.350775C2.17557 0.316888 2.39855 0.334829 2.60838 0.403148C2.81822 0.471466 3.00902 0.588241 3.16533 0.744016L4.55533 2.13335C4.75578 2.33179 4.89142 2.58629 4.94438 2.86334C4.99733 3.14038 4.96513 3.42697 4.852 3.68535C4.7282 3.97524 4.55242 4.24004 4.33333 4.46668C2.744 6.05602 7.94466 11.2567 9.53333 9.66668C9.76 9.44681 10.025 9.27034 10.3153 9.14602C10.5737 9.0327 10.8603 9.00039 11.1374 9.05336C11.4145 9.10632 11.669 9.24207 11.8673 9.44268L13.256 10.8347Z" fill="#C07E29"/>
</svg>
