<svg width="14" height="12" viewBox="0 0 14 12" fill="none" xmlns="http://www.w3.org/2000/svg">
<path d="M13.6668 1.33341V4.00008L7.00016 6.66675L0.333496 4.00008V1.33341C0.333496 1.1566 0.403734 0.987035 0.528758 0.86201C0.653782 0.736986 0.823352 0.666748 1.00016 0.666748H13.0002C13.177 0.666748 13.3465 0.736986 13.4716 0.86201C13.5966 0.987035 13.6668 1.1566 13.6668 1.33341ZM0.333496 5.43608V10.6667C0.333496 10.8436 0.403734 11.0131 0.528758 11.1382C0.653782 11.2632 0.823352 11.3334 1.00016 11.3334H13.0002C13.177 11.3334 13.3465 11.2632 13.4716 11.1382C13.5966 11.0131 13.6668 10.8436 13.6668 10.6667V5.43608L7.00016 8.10275L0.333496 5.43608Z" fill="#C07E29"/>
</svg>
