<svg width="16" height="15" viewBox="0 0 16 15" fill="none" xmlns="http://www.w3.org/2000/svg">
<path d="M7.47814 0.919802C7.70805 0.514577 8.29195 0.514576 8.52186 0.919802L10.4141 4.25503C10.4996 4.40567 10.646 4.51203 10.8157 4.54676L14.5724 5.31578C15.0288 5.40922 15.2093 5.96454 14.8949 6.30841L12.3077 9.13872C12.1908 9.26655 12.1349 9.43864 12.1543 9.61075L12.5838 13.4213C12.636 13.8842 12.1636 14.2274 11.7394 14.0347L8.24816 12.4487C8.09047 12.3771 7.90953 12.3771 7.75184 12.4487L4.26056 14.0347C3.83637 14.2274 3.36399 13.8842 3.41617 13.4213L3.84569 9.61075C3.86509 9.43864 3.80917 9.26655 3.69232 9.13872L1.10507 6.30842C0.790723 5.96454 0.971157 5.40922 1.42759 5.31578L5.18433 4.54676C5.35401 4.51203 5.5004 4.40567 5.58587 4.25503L7.47814 0.919802Z" fill="#C07E29"/>
</svg>
