<svg width="13" height="12" viewBox="0 0 13 12" fill="none" xmlns="http://www.w3.org/2000/svg">
<path fill-rule="evenodd" clip-rule="evenodd" d="M0.51072 5.40576C0.2223 5.44547 0 5.69637 0 5.99996C0 6.33114 0.264556 6.59962 0.590902 6.59962L10.9777 6.59962L7.2256 10.3921L7.16825 10.4592C6.99613 10.6936 7.01452 11.0268 7.22387 11.2401C7.45416 11.4748 7.82829 11.4756 8.05953 11.2419L12.8199 6.43086C12.8429 6.40825 12.8641 6.38376 12.8833 6.35763L12.8836 6.35719C13.0561 6.12206 13.037 5.78776 12.8261 5.57469L8.0595 0.758155L7.9931 0.700237C7.7614 0.526557 7.43317 0.546629 7.22384 0.759982C6.99357 0.99467 6.99438 1.37436 7.22564 1.60804L10.9786 5.40029L0.590902 5.40029L0.51072 5.40576Z" fill="#C07E29"/>
</svg>
