<svg width="32" height="24" viewBox="0 0 32 24" fill="none" xmlns="http://www.w3.org/2000/svg">
<path d="M27.6364 6.18177H23.2727V0.363609H2.90912C1.3018 0.363609 0 1.66541 0 3.27272V19.2728H2.90912C2.90912 21.6801 4.86546 23.6364 7.27276 23.6364C9.68005 23.6364 11.6364 21.6801 11.6364 19.2728H20.3637C20.3637 21.6801 22.32 23.6364 24.7273 23.6364C27.1346 23.6364 29.091 21.6801 29.091 19.2728H32.0001V12L27.6364 6.18177ZM7.27276 21.4545C6.06546 21.4545 5.09094 20.48 5.09094 19.2727C5.09094 18.0654 6.06546 17.0909 7.27276 17.0909C8.48005 17.0909 9.45458 18.0654 9.45458 19.2727C9.45458 20.48 8.47998 21.4545 7.27276 21.4545ZM24.7273 21.4545C23.52 21.4545 22.5455 20.48 22.5455 19.2727C22.5455 18.0654 23.52 17.0909 24.7273 17.0909C25.9346 17.0909 26.9091 18.0654 26.9091 19.2727C26.9091 20.48 25.9345 21.4545 24.7273 21.4545ZM23.2727 12V8.36366H26.9091L29.7672 12H23.2727Z" fill="#C07E29"/>
</svg>
