<svg width="28" height="28" viewBox="0 0 28 28" fill="none" xmlns="http://www.w3.org/2000/svg">
<path d="M23.3332 17.3333C23.6131 17.3334 23.886 17.2454 24.1131 17.0817C24.3402 16.918 24.51 16.687 24.5985 16.4213L27.2652 8.42134C27.3319 8.2209 27.3501 8.00746 27.3182 7.79861C27.2863 7.58977 27.2052 7.39149 27.0816 7.22013C26.9581 7.04877 26.7955 6.90923 26.6074 6.813C26.4194 6.71678 26.2111 6.66662 25.9998 6.66668H7.33317V1.33334C7.33317 0.979719 7.19269 0.64058 6.94265 0.390532C6.6926 0.140483 6.35346 7.62939e-06 5.99984 7.62939e-06H1.99984C1.64622 7.62939e-06 1.30708 0.140483 1.05703 0.390532C0.80698 0.64058 0.666504 0.979719 0.666504 1.33334C0.666504 1.68696 0.80698 2.0261 1.05703 2.27615C1.30708 2.5262 1.64622 2.66667 1.99984 2.66667H4.6665V21.3333C4.6665 21.687 4.80698 22.0261 5.05703 22.2762C5.30708 22.5262 5.64621 22.6667 5.99984 22.6667H21.9998C22.3535 22.6667 22.6926 22.5262 22.9426 22.2762C23.1927 22.0261 23.3332 21.687 23.3332 21.3333C23.3332 20.9797 23.1927 20.6406 22.9426 20.3905C22.6926 20.1405 22.3535 20 21.9998 20H7.33317V17.3333H23.3332ZM6.6665 24C7.06207 24 7.44875 24.1173 7.77764 24.3371C8.10654 24.5568 8.36289 24.8692 8.51426 25.2346C8.66564 25.6001 8.70525 26.0022 8.62807 26.3902C8.5509 26.7781 8.36042 27.1345 8.08072 27.4142C7.80101 27.6939 7.44465 27.8844 7.05668 27.9616C6.66872 28.0387 6.26659 27.9991 5.90114 27.8478C5.53568 27.6964 5.22333 27.44 5.00356 27.1111C4.7838 26.7822 4.6665 26.3956 4.6665 26C4.6665 25.4696 4.87722 24.9609 5.25229 24.5858C5.62736 24.2107 6.13607 24 6.6665 24ZM19.9998 24C20.3954 24 20.7821 24.1173 21.111 24.3371C21.4399 24.5568 21.6962 24.8692 21.8476 25.2346C21.999 25.6001 22.0386 26.0022 21.9614 26.3902C21.8842 26.7781 21.6938 27.1345 21.414 27.4142C21.1343 27.6939 20.778 27.8844 20.39 27.9616C20.0021 28.0387 19.5999 27.9991 19.2345 27.8478C18.869 27.6964 18.5567 27.44 18.3369 27.1111C18.1171 26.7822 17.9998 26.3956 17.9998 26C17.9998 25.4696 18.2105 24.9609 18.5856 24.5858C18.9607 24.2107 19.4694 24 19.9998 24Z" fill="#C07E29"/>
</svg>
