<svg width="28" height="30" viewBox="0 0 28 30" fill="none" xmlns="http://www.w3.org/2000/svg">
<path d="M22.3555 20.7778C23.9555 18.6445 24.8444 15.9778 24.8444 13.3111C24.8444 6.55556 19.3333 0.866676 12.4 0.866676C5.46663 0.866676 0.133301 6.55556 0.133301 13.4889C0.133301 20.4222 5.64441 25.9333 12.4 25.9333C15.0666 25.9333 17.7333 25.0445 19.8666 23.4445L25.5555 29.1333L27.8666 26.8222L22.3555 20.7778ZM12.5777 4.42223C17.5555 4.42223 21.4666 8.51112 21.4666 13.4889C21.4666 15.8 20.5777 18.1111 18.9777 19.7111L18.8 19.8889C17.0222 21.4889 14.8889 22.3778 12.5777 22.3778C7.59997 22.3778 3.68886 18.2889 3.68886 13.4889C3.51108 8.51112 7.59997 4.42223 12.5777 4.42223Z" fill="#C07E29"/>
</svg>
