<svg width="28" height="28" viewBox="0 0 28 28" fill="none" xmlns="http://www.w3.org/2000/svg">
<path d="M26.2747 21.5211C26.5803 21.8277 26.8094 22.202 26.9434 22.6137C27.0774 23.0254 27.1126 23.4628 27.0461 23.8906C26.9797 24.3184 26.8134 24.7245 26.5607 25.0761C26.3081 25.4276 25.9762 25.7148 25.592 25.9142C23.3962 27.0878 20.8378 27.3878 18.4301 26.7539C12.0398 25.1452 2.85469 15.96 1.24601 9.56979C0.612116 7.16207 0.912056 4.60371 2.08566 2.4079C2.2851 2.02366 2.57224 1.69178 2.92381 1.43914C3.27537 1.18651 3.6815 1.02022 4.10929 0.953736C4.53708 0.887256 4.97452 0.922454 5.38617 1.05648C5.79783 1.19051 6.17214 1.4196 6.47879 1.7252L9.20569 4.45079C9.59894 4.84009 9.86503 5.33938 9.96893 5.88288C10.0728 6.42639 10.0096 6.98862 9.78769 7.49551C9.54483 8.06422 9.19998 8.58371 8.77017 9.02833C5.65222 12.1463 15.8549 22.349 18.9715 19.2297C19.4162 18.7984 19.9362 18.4522 20.5057 18.2083C21.0125 17.986 21.5748 17.9226 22.1184 18.0265C22.662 18.1304 23.1613 18.3967 23.5504 18.7903L26.2747 21.5211Z" fill="#C07E29"/>
</svg>
