<svg width="32" height="32" viewBox="0 0 32 32" fill="none" xmlns="http://www.w3.org/2000/svg">
<circle cx="16.0006" cy="16" r="15.5572" fill="#419FD9" stroke="#F1E3C9" stroke-width="0.885714"/>
<path fill-rule="evenodd" clip-rule="evenodd" d="M18.8398 23.4738C19.9182 23.899 20.3226 23.0082 20.3226 23.0082L23.1759 10.0907C23.1534 9.22006 21.8503 9.74648 21.8503 9.74648L5.87646 15.3953C5.87646 15.3953 5.11259 15.6383 5.17999 16.0635C5.24739 16.4887 5.854 16.6911 5.854 16.6911L9.87554 17.906C9.87554 17.906 11.0887 21.4896 11.3359 22.178C11.5605 22.8462 11.7628 22.8664 11.7628 22.8664C11.9874 22.9474 12.1896 22.8057 12.1896 22.8057L14.7958 20.6798L18.8398 23.4738ZM19.5348 12.3786C19.5348 12.3786 20.0964 12.0749 20.074 12.3786C20.074 12.3786 20.1638 12.4191 19.8718 12.7026C19.6022 12.9456 13.2441 18.0883 12.3903 18.7766C12.3229 18.8171 12.278 18.8779 12.278 18.9589L12.0309 20.8621C11.9859 21.0645 11.6939 21.0848 11.6265 20.9026L10.5705 17.7846C10.5256 17.6631 10.5705 17.5213 10.7053 17.4404L19.5348 12.3786Z" fill="white"/>
</svg>
