<svg width="36" height="36" viewBox="0 0 36 36" fill="none" xmlns="http://www.w3.org/2000/svg">
<circle cx="18.0001" cy="18" r="16.8858" fill="#0DC143" stroke="#F1E3C9" stroke-width="1.77143"/>
<path d="M24.9794 11.0498L24.9813 11.0517C26.7985 12.8542 27.8144 15.2928 27.8144 17.8922C27.8144 23.2484 23.4294 27.6515 18.0283 27.6515C16.4221 27.6515 14.8186 27.2798 13.3772 26.4855L13.3125 26.4498L13.2409 26.4681L8.26651 27.7397L9.59782 22.9148L9.61778 22.8425L9.58212 22.7764C8.77704 21.2858 8.29664 19.6404 8.29665 17.9462L8.29663 17.9443C8.24319 12.5905 12.6261 8.18689 18.0828 8.18689C20.6505 8.18689 23.1631 9.19517 24.9794 11.0498L24.9794 11.0498ZM10.2184 25.6281L10.1367 25.9359L10.4452 25.8568L13.5388 25.0632L13.7967 25.1911C15.0801 25.9642 16.5828 26.3491 18.0828 26.3491C19.6418 26.3491 21.2023 25.9078 22.487 25.0774C26.4997 22.6434 27.6676 17.5011 25.2172 13.5239C22.7636 9.54149 17.58 8.384 13.5718 10.8136C9.55761 13.2468 8.38789 18.4448 10.84 22.3695L10.8399 22.3695L10.8433 22.3747L11.0141 22.6288L10.2184 25.6281ZM22.7984 20.3311C22.8206 20.3422 22.8395 20.3532 22.8552 20.3631V20.3631V20.3638V20.3646V20.3653V20.3661V20.3669V20.3676V20.3684V20.3691V20.3699V20.3707V20.3714V20.3722V20.3729V20.3737V20.3745V20.3752V20.376V20.3768V20.3775V20.3783V20.3791V20.3798V20.3806V20.3814V20.3821V20.3829V20.3837V20.3844V20.3852V20.386V20.3867V20.3875V20.3883V20.3891V20.3898V20.3906V20.3914V20.3921V20.3929V20.3937V20.3945V20.3952V20.396V20.3968V20.3976V20.3984V20.3991V20.3999V20.4007V20.4015V20.4022V20.403V20.4038V20.4046V20.4054V20.4061V20.4069V20.4077V20.4085V20.4093V20.41V20.4108V20.4116V20.4124V20.4132V20.414V20.4147V20.4155V20.4163V20.4171V20.4179V20.4187V20.4195V20.4202V20.421V20.4218V20.4226V20.4234V20.4242V20.425V20.4257V20.4265V20.4273V20.4281V20.4289V20.4297V20.4305V20.4313V20.4321V20.4328V20.4336V20.4344V20.4352V20.436V20.4368V20.4376V20.4384V20.4392V20.4399V20.4407V20.4415V20.4423V20.4431V20.4439V20.4447V20.4455V20.4463V20.4471V20.4479V20.4486V20.4494V20.4502V20.451V20.4518V20.4526V20.4534V20.4542V20.455V20.4558V20.4566V20.4574V20.4581V20.4589V20.4597V20.4605V20.4613V20.4621V20.4629V20.4637V20.4645V20.4653V20.4661V20.4669V20.4676V20.4684V20.4692V20.47V20.4708V20.4716V20.4724V20.4732V20.474V20.4748V20.4756V20.4764V20.4771V20.4779V20.4787V20.4795V20.4803V20.4811V20.4819V20.4827V20.4835V20.4843V20.485V20.4858V20.4866V20.4874V20.4882V20.489V20.4898V20.4906V20.4914V20.4921V20.4929V20.4937V20.4945V20.4953V20.4961V20.4969V20.4977V20.4984V20.4992V20.5V20.5008V20.5016V20.5024V20.5031V20.5039V20.5047V20.5055V20.5063V20.5071V20.5078V20.5086V20.5094V20.5102V20.511V20.5118V20.5125V20.5133V20.5141V20.5149V20.5157V20.5164V20.5172V20.518V20.5188V20.5196V20.5203V20.5211V20.5219V20.5227V20.5234V20.5242V20.525V20.5258V20.5265V20.5273V20.5281V20.5289V20.5296V20.5304V20.5312V20.532V20.5327V20.5335V20.5343V20.535V20.5358V20.5366V20.5373V20.5381V20.5389V20.5396V20.5404V20.5412V20.5419V20.5427V20.5435V20.5442V20.545V20.5458V20.5465V20.5473V20.548V20.5488V20.5496V20.5503V20.5511V20.5518V20.5526V20.5534V20.5541V20.5549V20.5556V20.5564V20.5571V20.5579V20.5586V20.5594V20.5601V20.5609V20.5616V20.5624V20.5631V20.5639V20.5646V20.5654V20.5661V20.5669V20.5676V20.5684V20.5691V20.5699V20.5706V20.5713V20.5721V20.5728V20.5736V20.5743V20.575V20.5758V20.5765V20.5773V20.578V20.5787V20.5795V20.5802V20.5809V20.5817V20.5824V20.5831V20.5839V20.5846V20.5853V20.586V20.5868V20.5875V20.5882V20.5889V20.5897V20.5904V20.5911V20.5918V20.5925V20.5933V20.594V20.5947V20.5954V20.5961V20.5968V20.5976V20.5983V20.599V20.5997V20.6004V20.6011V20.6018V20.6025V20.6032V20.6039V20.6047V20.6054V20.6061V20.6068V20.6075V20.6082V20.6089V20.6096V20.6103V20.611V20.6117V20.6123V20.613V20.6137V20.6144V20.6151V20.6158V20.6165V20.6172V20.6179V20.6186V20.6192V20.6199V20.6206V20.6213V20.622V20.6226V20.6233V20.624V20.6247V20.6254V20.626V20.6267V20.6274V20.628V20.6287V20.6294V20.6301V20.6303C22.8008 20.8997 22.7506 21.1365 22.6572 21.3217C22.6194 21.3967 22.5366 21.4819 22.42 21.5975C22.3762 21.641 22.3318 21.6742 22.2765 21.7154L22.2735 21.7176C22.2205 21.7571 22.157 21.8043 22.093 21.8677L21.984 21.9759C21.9544 22.0052 21.9255 22.0212 21.8699 22.0457C21.8631 22.0487 21.856 22.0518 21.8485 22.055C21.7953 22.0781 21.7233 22.1093 21.6414 22.1621C21.438 22.2614 21.146 22.3542 20.9166 22.3542H20.9156H20.9146H20.9137H20.9127H20.9118H20.9108H20.9098H20.9089H20.9079H20.9069H20.906H20.905H20.904H20.903H20.9021H20.9011H20.9001H20.8991H20.8981H20.8972H20.8962H20.8952H20.8942H20.8932H20.8922H20.8912H20.8903H20.8893H20.8883H20.8873H20.8863H20.8853H20.8843H20.8833H20.8823H20.8813H20.8803H20.8793H20.8783H20.8773H20.8763H20.8753H20.8743H20.8733H20.8723H20.8713H20.8702H20.8692H20.8682H20.8672H20.8662H20.8652H20.8642H20.8631H20.8621H20.8611H20.8601H20.8591H20.858H20.857H20.856H20.855H20.8539H20.8529H20.8519H20.8509H20.8498H20.8488H20.8478H20.8467H20.8457H20.8447H20.8436H20.8426H20.8416H20.8405H20.8395H20.8384H20.8374H20.8364H20.8353H20.8343H20.8332H20.8322H20.8311H20.8301H20.829H20.828H20.8269H20.8259H20.8248H20.8238H20.8227H20.8217H20.8206H20.8196H20.8185H20.8175H20.8164H20.8153H20.8143H20.8132H20.8122H20.8111H20.81H20.809H20.8079H20.8069H20.8058H20.8047H20.8037H20.8026H20.8015H20.8005H20.7994H20.7983H20.7972H20.7962H20.7951H20.794H20.793H20.7919H20.7908H20.7897H20.7887H20.7876H20.7865H20.7854H20.7844H20.7833H20.7822H20.7811H20.78H20.779H20.7779H20.7768H20.7757H20.7746H20.7735H20.7725H20.7714H20.7703H20.7692H20.7681H20.767H20.7659H20.7648H20.7638H20.7627H20.7616H20.7605H20.7594H20.7583H20.7572H20.7561H20.755H20.7539H20.7528H20.7517H20.7507H20.7496H20.7485H20.7474H20.7463H20.7452H20.7441H20.743H20.7419H20.7408H20.7397H20.7386H20.7375H20.7364H20.7353H20.7342H20.7331H20.732H20.7309H20.7298H20.7287H20.7276H20.7265H20.7254H20.7242H20.7231H20.722H20.7209H20.7198H20.7187H20.7176H20.7165H20.7154H20.7143H20.7132H20.7121H20.711H20.7099H20.7087H20.7076H20.7065H20.7054H20.7043H20.7032H20.7021H20.701H20.6999H20.6987H20.6976H20.6965H20.6954H20.6943H20.6932H20.6921H20.691H20.6898H20.6887H20.6876H20.6865H20.6854H20.6843H20.6832H20.682H20.6809H20.6798H20.6787H20.6776H20.6765H20.6754H20.6742H20.6731H20.672H20.6709H20.6698H20.6687H20.6675H20.6664H20.6653H20.6642H20.6631H20.662H20.6608H20.6597H20.6586H20.6575H20.6564H20.6553H20.6541H20.653H20.6519H20.6508H20.6497H20.6486H20.6474H20.6463H20.6452H20.6441H20.643H20.6418H20.6407H20.6396H20.6385H20.6374H20.6363H20.6351H20.634H20.6329H20.6318H20.6307H20.6296H20.6284H20.6273H20.6262H20.6251H20.624H20.6229H20.6217H20.6206H20.6195H20.6184H20.6173H20.6162H20.615H20.6139H20.6128H20.6117H20.6106H20.6095H20.6083H20.6072H20.6061H20.605H20.6039H20.6028H20.6017H20.6005H20.5994H20.5983H20.5972H20.5961H20.595H20.5939H20.5928H20.5916H20.5905H20.5894H20.5883H20.5872H20.5861H20.585H20.5839H20.5828H20.5816H20.5805H20.5794H20.5783H20.5772H20.5761H20.575H20.5739H20.5728H20.5717H20.5706H20.5694H20.5683H20.5672H20.5661H20.565H20.5639H20.5628H20.5617H20.5606H20.5595H20.5584H20.5573H20.5562H20.5551H20.554H20.5529H20.5518H20.5507H20.5496H20.5485H20.5474H20.5463H20.5452H20.5441H20.543H20.5419H20.5408H20.5397H20.5386H20.5375H20.5364H20.5353H20.5342H20.5331H20.532H20.5309H20.5299H20.5288H20.5277H20.5266H20.5255H20.5244H20.5233H20.5222H20.5211H20.5201H20.519H20.5179H20.5168H20.5157H20.5146H20.5135H20.5125H20.5114H20.5103H20.5092H20.5081H20.507H20.506H20.5049H20.5038H20.5027H20.5017H20.5006H20.4995H20.4984H20.4974H20.4963H20.4952H20.4941H20.4931H20.492H20.4909H20.4898H20.4888H20.4877H20.4866H20.4856H20.4845H20.4834H20.4824H20.4813H20.4802H20.4792H20.4781H20.4771H20.476H20.4749H20.4739H20.4728H20.4718H20.4707H20.4696H20.4686H20.4675H20.4665H20.4654H20.4644H20.4633H20.4623H20.4612H20.4602H20.4591H20.4581H20.457H20.456H20.4549H20.4539H20.4529H20.4518H20.4508H20.4497H20.4487H20.4477H20.4466H20.4456H20.4445H20.4435H20.4425H20.4414H20.4404H20.4394H20.4383H20.4373H20.4363H20.4353H20.4342H20.4332H20.4322H20.4311H20.4301H20.4291H20.4281H20.4271H20.426H20.425H20.424H20.423H20.422H20.421H20.4199H20.4189H20.4179H20.4169H20.4159H20.4149H20.4139H20.4129H20.4119H20.4109H20.4099H20.4089H20.4079H20.4069H20.4059H20.4049H20.4039H20.4029H20.4019H20.4009H20.3999H20.3998C20.3101 22.3281 20.2137 22.3145 20.1332 22.3031L20.1253 22.3019C20.0257 22.2878 19.9481 22.2762 19.8852 22.2555L19.8854 22.2551L19.8731 22.2519C18.4387 21.8831 17.1621 21.1998 16.0423 20.2521C15.978 20.1621 15.9026 20.0889 15.8304 20.0238C15.8035 19.9996 15.7779 19.9771 15.7529 19.9552C15.7006 19.9094 15.651 19.8658 15.5984 19.8137L15.3804 19.5975L15.3805 19.5974L15.3761 19.5933C14.5252 18.8021 13.8863 17.9059 13.4059 16.903L13.3551 16.7516L13.3526 16.7442L13.3495 16.737C13.194 16.3772 13.0923 15.97 13.0923 15.5678C13.0923 15.0218 13.2916 14.4707 13.6453 14.0159C13.7049 13.9554 13.75 13.8958 13.788 13.8455L13.7902 13.8426C13.8258 13.7955 13.8555 13.7566 13.8908 13.719C13.9493 13.6863 14.0037 13.6458 14.0468 13.6137L14.0525 13.6095C14.1104 13.5664 14.1509 13.537 14.1875 13.5188L14.2145 13.5054L14.236 13.4841L14.2422 13.478C14.2879 13.4715 14.329 13.4613 14.3608 13.4534C14.363 13.4528 14.3653 13.4522 14.3675 13.4517C14.4263 13.4371 14.4583 13.4302 14.486 13.4302H14.487H14.4879H14.4889H14.4898H14.4908H14.4918H14.4927H14.4937H14.4946H14.4956H14.4966H14.4975H14.4985H14.4994H14.5004H14.5013H14.5023H14.5033H14.5042H14.5052H14.5061H14.5071H14.508H14.509H14.51H14.5109H14.5119H14.5128H14.5138H14.5147H14.5157H14.5167H14.5176H14.5186H14.5195H14.5205H14.5214H14.5224H14.5234H14.5243H14.5253H14.5262H14.5272H14.5281H14.5291H14.53H14.531H14.532H14.5329H14.5339H14.5348H14.5358H14.5367H14.5377H14.5386H14.5396H14.5405H14.5415H14.5425H14.5434H14.5444H14.5453H14.5463H14.5472H14.5482H14.5491H14.5501H14.551H14.552H14.5529H14.5539H14.5548H14.5558H14.5567H14.5577H14.5586H14.5596H14.5605H14.5615H14.5624H14.5634H14.5643H14.5653H14.5662H14.5672H14.5681H14.5691H14.57H14.571H14.5719H14.5729H14.5738H14.5748H14.5757H14.5767H14.5776H14.5786H14.5795H14.5805H14.5814H14.5824H14.5833H14.5842H14.5852H14.5861H14.5871H14.588H14.589H14.5899H14.5909H14.5918H14.5927H14.5937H14.5946H14.5956H14.5965H14.5974H14.5984H14.5993H14.6003H14.6012H14.6021H14.6031H14.604H14.605H14.6059H14.6068H14.6078H14.6087H14.6097H14.6106H14.6115H14.6125H14.6134H14.6143H14.6153H14.6162H14.6171H14.6181H14.619H14.6199H14.6209H14.6218H14.6227H14.6237H14.6246H14.6255H14.6265H14.6274H14.6283H14.6293H14.6302H14.6311H14.6321H14.633H14.6339H14.6348H14.6358H14.6367H14.6376H14.6386H14.6395H14.6404H14.6413H14.6423H14.6432H14.6441H14.645H14.6459H14.6469H14.6478H14.6487H14.6496H14.6506H14.6515H14.6524H14.6533H14.6542H14.6552H14.6561H14.657H14.6579H14.6588H14.6597H14.6607H14.6616H14.6625H14.6634H14.6643H14.6652H14.6662H14.6671H14.668H14.6689H14.6698H14.6707H14.6716H14.6725H14.6734H14.6744H14.6753H14.6762H14.6771H14.678H14.6789H14.6798H14.6807H14.6816H14.6825H14.6834H14.6843H14.6852H14.6861H14.687H14.6879H14.6888H14.6897H14.6906H14.6915H14.6924H14.6933H14.6942H14.6951H14.696H14.6969H14.6978H14.6987H14.6996H14.7005H14.7014H14.7023H14.7032H14.7041H14.705H14.7059H14.7068H14.7076H14.7085H14.7094H14.7103H14.7112H14.7121H14.713H14.7139H14.7147H14.7156H14.7165H14.7174H14.7183H14.7192H14.72H14.7209H14.7218H14.7227H14.7236H14.7244H14.7253H14.7262H14.7271H14.7279H14.7288H14.7297H14.7306H14.7314H14.7323H14.7332H14.7341H14.7349H14.7358H14.7367H14.7375H14.7384H14.7393H14.7401H14.741H14.7419H14.7427H14.7436H14.7445H14.7453H14.7462H14.7471H14.7479H14.7488H14.7496H14.7505H14.7513H14.7522H14.7531H14.7539H14.7548H14.7556H14.7565H14.7573H14.7582H14.759H14.7599H14.7607H14.7616H14.7624H14.7633H14.7641H14.765H14.7658H14.7667H14.7675H14.7684H14.7692H14.77H14.7709H14.7717H14.7726H14.7734H14.7742H14.7751H14.7759H14.7768H14.7776H14.7784H14.7793H14.7801H14.7809H14.7817H14.7826H14.7834H14.7842H14.7851H14.7859H14.7867H14.7875H14.7884H14.7892H14.79H14.7908H14.7917H14.7925H14.7933H14.7941H14.7949H14.7958H14.7966H14.7974H14.7982H14.799H14.7998H14.8006H14.8015H14.8023H14.8031H14.8039H14.8047H14.8055H14.8063H14.8071H14.8079H14.8087H14.8095H14.8103H14.8111H14.8119H14.8127H14.8135H14.8143H14.8151H14.8159H14.8167H14.8175H14.8183H14.8191H14.8199H14.8207H14.8215H14.8223H14.823H14.8238H14.8246H14.8254H14.8262H14.827H14.8278H14.8285H14.8293H14.8301H14.8309H14.8317H14.8324H14.8332H14.834H14.8348H14.8355H14.8363H14.8371H14.8378H14.8386H14.8394H14.8401H14.8409H14.8417H14.8424H14.8432H14.844H14.8447H14.8455H14.8463H14.847H14.8478H14.8485H14.8493H14.85H14.8508H14.8515H14.8523H14.853H14.8538H14.8545H14.8553H14.856H14.8568H14.8575H14.8583H14.859H14.8598H14.8605H14.8612H14.862H14.8627H14.8634H14.8642H14.8649H14.8657H14.8664H14.8671H14.8678H14.8686H14.8693H14.87H14.8708H14.8715H14.8722H14.8729H14.8736H14.8744H14.8751H14.8758H14.8765H14.8772H14.878H14.8787H14.8794H14.8801H14.8808H14.8815H14.8822H14.8829H14.8836H14.8843H14.885H14.8857H14.8864H14.8871H14.8878H14.8885H14.8892H14.8899H14.8906H14.8913H14.892H14.8927H14.8934H14.8941H14.8948H14.8955H14.8962H14.8968H14.8975H14.8982H14.8989H14.8996H14.9002H14.9009H14.9016H14.9023H14.903H14.9036H14.9043H14.905H14.9056H14.9063H14.907H14.9076H14.9083H14.909H14.9096H14.9103H14.911H14.9116H14.9123H14.9129H14.9136H14.9142H14.9149H14.9155H14.9162H14.9168H14.9175H14.9181H14.9188H14.9194H14.9201H14.9207H14.9213H14.922H15.0547C15.1165 13.4516 15.1585 13.4705 15.1937 13.4938C15.2296 13.5175 15.2654 13.5506 15.3057 13.6086C15.3884 13.7744 15.5863 14.2064 15.7726 14.6354C15.8676 14.8541 15.9587 15.0701 16.0292 15.2474C16.1025 15.4319 16.1463 15.557 16.1559 15.6047L16.1582 15.6162L16.1619 15.6273C16.1906 15.7125 16.1665 15.8606 16.0835 15.9911C16.0201 16.0583 15.9735 16.1355 15.9381 16.1941L15.9339 16.2009C15.8907 16.2723 15.8613 16.3192 15.826 16.3542C15.7385 16.441 15.639 16.5539 15.5634 16.6426C15.5251 16.6875 15.492 16.7272 15.4686 16.7556L15.4409 16.7893L15.4358 16.7956C15.3721 16.8642 15.3519 16.9492 15.3435 17.0074C15.3347 17.0682 15.3348 17.1338 15.3348 17.1837L15.3348 17.1894V17.2338L15.3548 17.2735C15.3711 17.3059 15.3798 17.3284 15.39 17.3549C15.3939 17.365 15.398 17.3756 15.4028 17.3876C15.4176 17.4243 15.4377 17.4682 15.4753 17.5126L15.5182 17.5978L15.5181 17.5979L15.5221 17.605C15.8069 18.1136 16.2024 18.5602 16.5889 18.9436C16.6508 19.005 16.7257 19.0644 16.7908 19.116L16.7951 19.1195C16.8653 19.1752 16.9246 19.2226 16.9704 19.2679C17.428 19.7219 17.9948 20.0573 18.6055 20.3326L18.6054 20.3328L18.6134 20.3359L18.8553 20.4319C18.8948 20.4645 18.9399 20.4918 18.9808 20.5121C19.0273 20.5352 19.1005 20.5653 19.1727 20.5653H19.2272C19.3882 20.5653 19.5594 20.4881 19.6536 20.3241C20.026 19.9021 20.2263 19.6769 20.3335 19.5573C20.3838 19.5011 20.4134 19.4685 20.4305 19.4498C20.5176 19.4073 20.5861 19.3792 20.6823 19.3764C20.6857 19.378 20.6905 19.3803 20.6974 19.3837L20.6995 19.3848C20.7118 19.3909 20.7331 19.4015 20.7561 19.41C20.77 19.4152 20.7873 19.4207 20.8074 19.4247C21.0791 19.5586 21.4216 19.7153 21.6985 19.8395C21.842 19.9039 21.9685 19.9599 22.0591 19.9997L22.1657 20.0464L22.1945 20.059L22.2021 20.0623L22.2034 20.0629L22.204 20.0631L22.7984 20.3311ZM20.4507 19.428L20.4506 19.428L20.4507 19.428Z" fill="white" stroke="white" stroke-width="0.373336"/>
</svg>
