<svg width="143" height="30" viewBox="0 0 143 30" fill="none" xmlns="http://www.w3.org/2000/svg">
<path d="M0.988273 2.68976C0.50863 1.38433 1.47481 0 2.86557 0H140.134C141.525 0 142.491 1.38433 142.012 2.68976L137.742 14.3102C137.579 14.7555 137.579 15.2445 137.742 15.6898L142.012 27.3102C142.491 28.6157 141.525 30 140.134 30H2.86557C1.47481 30 0.50863 28.6157 0.988273 27.3102L5.25788 15.6898C5.42149 15.2445 5.42149 14.7555 5.25788 14.3102L0.988273 2.68976Z" fill="#C07E29"/>
<path d="M40.456 10.588C41.696 10.588 42.648 10.808 43.312 11.248C43.976 11.68 44.308 12.392 44.308 13.384C44.308 14.384 43.972 15.108 43.3 15.556C42.628 15.996 41.668 16.216 40.42 16.216H39.832V19H37.96V10.804C38.368 10.724 38.8 10.668 39.256 10.636C39.712 10.604 40.112 10.588 40.456 10.588ZM40.576 12.184C40.44 12.184 40.304 12.188 40.168 12.196C40.04 12.204 39.928 12.212 39.832 12.22V14.62H40.42C41.068 14.62 41.556 14.532 41.884 14.356C42.212 14.18 42.376 13.852 42.376 13.372C42.376 13.14 42.332 12.948 42.244 12.796C42.164 12.644 42.044 12.524 41.884 12.436C41.732 12.34 41.544 12.276 41.32 12.244C41.096 12.204 40.848 12.184 40.576 12.184ZM50.4303 19C50.3423 18.712 50.2423 18.416 50.1303 18.112C50.0263 17.808 49.9223 17.504 49.8183 17.2H46.5783C46.4743 17.504 46.3663 17.808 46.2543 18.112C46.1503 18.416 46.0543 18.712 45.9663 19H44.0223C44.3343 18.104 44.6303 17.276 44.9103 16.516C45.1903 15.756 45.4623 15.04 45.7263 14.368C45.9983 13.696 46.2623 13.06 46.5183 12.46C46.7823 11.852 47.0543 11.26 47.3343 10.684H49.1223C49.3943 11.26 49.6623 11.852 49.9263 12.46C50.1903 13.06 50.4543 13.696 50.7183 14.368C50.9903 15.04 51.2663 15.756 51.5463 16.516C51.8263 17.276 52.1223 18.104 52.4343 19H50.4303ZM48.1863 12.568C48.1463 12.688 48.0863 12.852 48.0063 13.06C47.9263 13.268 47.8343 13.508 47.7303 13.78C47.6263 14.052 47.5103 14.352 47.3823 14.68C47.2623 15.008 47.1383 15.352 47.0103 15.712H49.3743C49.2463 15.352 49.1223 15.008 49.0023 14.68C48.8823 14.352 48.7663 14.052 48.6543 13.78C48.5503 13.508 48.4583 13.268 48.3783 13.06C48.2983 12.852 48.2343 12.688 48.1863 12.568ZM57.0801 19.168C55.7281 19.168 54.6961 18.792 53.9841 18.04C53.2801 17.288 52.9281 16.22 52.9281 14.836C52.9281 14.148 53.0361 13.536 53.2521 13C53.4681 12.456 53.7641 12 54.1401 11.632C54.5161 11.256 54.9641 10.972 55.4841 10.78C56.0041 10.588 56.5681 10.492 57.1761 10.492C57.5281 10.492 57.8481 10.52 58.1361 10.576C58.4241 10.624 58.6761 10.684 58.8921 10.756C59.1081 10.82 59.2881 10.888 59.4321 10.96C59.5761 11.032 59.6801 11.088 59.7441 11.128L59.2041 12.64C58.9481 12.504 58.6481 12.388 58.3041 12.292C57.9681 12.196 57.5841 12.148 57.1521 12.148C56.8641 12.148 56.5801 12.196 56.3001 12.292C56.0281 12.388 55.7841 12.544 55.5681 12.76C55.3601 12.968 55.1921 13.24 55.0641 13.576C54.9361 13.912 54.8721 14.32 54.8721 14.8C54.8721 15.184 54.9121 15.544 54.9921 15.88C55.0801 16.208 55.2161 16.492 55.4001 16.732C55.5921 16.972 55.8401 17.164 56.1441 17.308C56.4481 17.444 56.8161 17.512 57.2481 17.512C57.5201 17.512 57.7641 17.496 57.9801 17.464C58.1961 17.432 58.3881 17.396 58.5561 17.356C58.7241 17.308 58.8721 17.256 59.0001 17.2C59.1281 17.144 59.2441 17.092 59.3481 17.044L59.8641 18.544C59.6001 18.704 59.2281 18.848 58.7481 18.976C58.2681 19.104 57.7121 19.168 57.0801 19.168ZM67.9094 10.684V19H66.0374V12.268H62.9414V19H61.0694V10.684H67.9094ZM72.331 10.588C73.571 10.588 74.523 10.808 75.187 11.248C75.851 11.68 76.183 12.392 76.183 13.384C76.183 14.384 75.847 15.108 75.175 15.556C74.503 15.996 73.543 16.216 72.295 16.216H71.707V19H69.835V10.804C70.243 10.724 70.675 10.668 71.131 10.636C71.587 10.604 71.987 10.588 72.331 10.588ZM72.451 12.184C72.315 12.184 72.179 12.188 72.043 12.196C71.915 12.204 71.803 12.212 71.707 12.22V14.62H72.295C72.943 14.62 73.431 14.532 73.759 14.356C74.087 14.18 74.251 13.852 74.251 13.372C74.251 13.14 74.207 12.948 74.119 12.796C74.039 12.644 73.919 12.524 73.759 12.436C73.607 12.34 73.419 12.276 73.195 12.244C72.971 12.204 72.723 12.184 72.451 12.184ZM79.1297 14.836C79.1297 15.244 79.1777 15.612 79.2737 15.94C79.3777 16.268 79.5217 16.552 79.7057 16.792C79.8977 17.024 80.1297 17.204 80.4017 17.332C80.6737 17.46 80.9857 17.524 81.3377 17.524C81.6817 17.524 81.9897 17.46 82.2617 17.332C82.5417 17.204 82.7737 17.024 82.9577 16.792C83.1497 16.552 83.2937 16.268 83.3897 15.94C83.4937 15.612 83.5457 15.244 83.5457 14.836C83.5457 14.428 83.4937 14.06 83.3897 13.732C83.2937 13.396 83.1497 13.112 82.9577 12.88C82.7737 12.64 82.5417 12.456 82.2617 12.328C81.9897 12.2 81.6817 12.136 81.3377 12.136C80.9857 12.136 80.6737 12.204 80.4017 12.34C80.1297 12.468 79.8977 12.652 79.7057 12.892C79.5217 13.124 79.3777 13.408 79.2737 13.744C79.1777 14.072 79.1297 14.436 79.1297 14.836ZM85.4777 14.836C85.4777 15.548 85.3697 16.176 85.1537 16.72C84.9457 17.256 84.6577 17.708 84.2897 18.076C83.9217 18.436 83.4817 18.708 82.9697 18.892C82.4657 19.076 81.9217 19.168 81.3377 19.168C80.7697 19.168 80.2337 19.076 79.7297 18.892C79.2257 18.708 78.7857 18.436 78.4097 18.076C78.0337 17.708 77.7377 17.256 77.5217 16.72C77.3057 16.176 77.1977 15.548 77.1977 14.836C77.1977 14.124 77.3097 13.5 77.5337 12.964C77.7577 12.42 78.0577 11.964 78.4337 11.596C78.8177 11.228 79.2577 10.952 79.7537 10.768C80.2577 10.584 80.7857 10.492 81.3377 10.492C81.9057 10.492 82.4417 10.584 82.9457 10.768C83.4497 10.952 83.8897 11.228 84.2657 11.596C84.6417 11.964 84.9377 12.42 85.1537 12.964C85.3697 13.5 85.4777 14.124 85.4777 14.836ZM86.3181 17.416H87.5181C87.8141 16.904 88.0461 16.396 88.2141 15.892C88.3821 15.388 88.5061 14.876 88.5861 14.356C88.6741 13.836 88.7261 13.3 88.7421 12.748C88.7661 12.196 88.7781 11.616 88.7781 11.008V10.684H94.2741V17.416H95.7021V21.22H93.9021V19H88.1181V21.22H86.3181V17.416ZM90.5421 12.268C90.5261 12.7 90.4981 13.144 90.4581 13.6C90.4181 14.056 90.3581 14.508 90.2781 14.956C90.1981 15.396 90.0901 15.828 89.9541 16.252C89.8261 16.668 89.6621 17.056 89.4621 17.416H92.4501V12.268H90.5421ZM102.696 19C102.608 18.712 102.508 18.416 102.396 18.112C102.292 17.808 102.188 17.504 102.084 17.2H98.844C98.74 17.504 98.632 17.808 98.52 18.112C98.416 18.416 98.32 18.712 98.232 19H96.288C96.6 18.104 96.896 17.276 97.176 16.516C97.456 15.756 97.728 15.04 97.992 14.368C98.264 13.696 98.528 13.06 98.784 12.46C99.048 11.852 99.32 11.26 99.6 10.684H101.388C101.66 11.26 101.928 11.852 102.192 12.46C102.456 13.06 102.72 13.696 102.984 14.368C103.256 15.04 103.532 15.756 103.812 16.516C104.092 17.276 104.388 18.104 104.7 19H102.696ZM100.452 12.568C100.412 12.688 100.352 12.852 100.272 13.06C100.192 13.268 100.1 13.508 99.996 13.78C99.892 14.052 99.776 14.352 99.648 14.68C99.528 15.008 99.404 15.352 99.276 15.712H101.64C101.512 15.352 101.388 15.008 101.268 14.68C101.148 14.352 101.032 14.052 100.92 13.78C100.816 13.508 100.724 13.268 100.644 13.06C100.564 12.852 100.5 12.688 100.452 12.568ZM105.229 19C105.461 18.592 105.709 18.184 105.973 17.776C106.237 17.368 106.505 16.976 106.777 16.6C107.057 16.216 107.341 15.86 107.629 15.532C107.925 15.196 108.221 14.896 108.517 14.632C108.181 14.288 107.869 13.952 107.581 13.624C107.293 13.296 107.017 12.972 106.753 12.652C106.497 12.332 106.245 12.012 105.997 11.692C105.749 11.364 105.497 11.028 105.241 10.684H107.497C107.737 11.02 107.961 11.328 108.169 11.608C108.385 11.888 108.593 12.16 108.793 12.424C109.001 12.688 109.209 12.948 109.417 13.204C109.625 13.46 109.849 13.732 110.089 14.02V10.684H111.913V14.02C112.153 13.724 112.381 13.444 112.597 13.18C112.821 12.908 113.037 12.64 113.245 12.376C113.453 12.112 113.661 11.844 113.869 11.572C114.077 11.292 114.289 10.996 114.505 10.684H116.749C116.461 11.06 116.189 11.412 115.933 11.74C115.685 12.068 115.433 12.388 115.177 12.7C114.921 13.012 114.657 13.324 114.385 13.636C114.121 13.948 113.829 14.276 113.509 14.62C114.157 15.22 114.749 15.896 115.285 16.648C115.821 17.392 116.321 18.176 116.785 19H114.697C114.449 18.624 114.217 18.276 114.001 17.956C113.785 17.636 113.569 17.328 113.353 17.032C113.137 16.736 112.913 16.448 112.681 16.168C112.449 15.88 112.193 15.584 111.913 15.28V19H110.089V15.28C109.801 15.616 109.541 15.928 109.309 16.216C109.077 16.504 108.853 16.792 108.637 17.08C108.429 17.368 108.217 17.668 108.001 17.98C107.785 18.284 107.553 18.624 107.305 19H105.229ZM123.743 19C123.655 18.712 123.555 18.416 123.443 18.112C123.339 17.808 123.235 17.504 123.131 17.2H119.891C119.787 17.504 119.679 17.808 119.567 18.112C119.463 18.416 119.367 18.712 119.279 19H117.335C117.647 18.104 117.943 17.276 118.223 16.516C118.503 15.756 118.775 15.04 119.039 14.368C119.311 13.696 119.575 13.06 119.831 12.46C120.095 11.852 120.367 11.26 120.647 10.684H122.435C122.707 11.26 122.975 11.852 123.239 12.46C123.503 13.06 123.767 13.696 124.031 14.368C124.303 15.04 124.579 15.756 124.859 16.516C125.139 17.276 125.435 18.104 125.747 19H123.743ZM121.499 12.568C121.459 12.688 121.399 12.852 121.319 13.06C121.239 13.268 121.147 13.508 121.043 13.78C120.939 14.052 120.823 14.352 120.695 14.68C120.575 15.008 120.451 15.352 120.323 15.712H122.687C122.559 15.352 122.435 15.008 122.315 14.68C122.195 14.352 122.079 14.052 121.967 13.78C121.863 13.508 121.771 13.268 121.691 13.06C121.611 12.852 121.547 12.688 121.499 12.568Z" fill="white"/>
<g clip-path="url(#clip0)">
<path d="M32.0028 14.6943C31.9425 14.5708 31.9425 14.4292 32.0028 14.3058L32.5623 13.1613C32.8738 12.5241 32.627 11.7645 32.0004 11.4321L30.8751 10.8351C30.7537 10.7707 30.6705 10.656 30.6467 10.5207L30.4267 9.26598C30.3041 8.56737 29.6579 8.09792 28.9557 8.19726L27.6944 8.37568C27.5583 8.3949 27.4237 8.35113 27.3249 8.25559L26.4093 7.3699C25.8996 6.87672 25.1009 6.87669 24.5912 7.3699L23.6756 8.25568C23.5768 8.35125 23.4422 8.39493 23.3061 8.37577L22.0448 8.19735C21.3424 8.09795 20.6964 8.56746 20.5738 9.26607L20.3537 10.5208C20.33 10.6561 20.2468 10.7707 20.1254 10.8351L19.0001 11.4322C18.3736 11.7646 18.1268 12.5242 18.4382 13.1614L18.9977 14.3058C19.058 14.4293 19.058 14.5709 18.9977 14.6944L18.4382 15.8388C18.1267 16.4761 18.3735 17.2356 19.0001 17.568L20.1254 18.1651C20.2468 18.2295 20.33 18.3441 20.3537 18.4794L20.5738 19.7342C20.6854 20.3701 21.2307 20.8161 21.8575 20.8161C21.9192 20.8161 21.9818 20.8118 22.0448 20.8028L23.3061 20.6244C23.4421 20.6051 23.5768 20.649 23.6756 20.7445L24.5912 21.6302C24.8461 21.8768 25.1731 22.0001 25.5002 22.0001C25.8273 22.0001 26.1545 21.8768 26.4093 21.6302L27.3249 20.7445C27.4237 20.649 27.5583 20.6053 27.6944 20.6244L28.9557 20.8028C29.6582 20.9022 30.3041 20.4327 30.4267 19.7341L30.6468 18.4794C30.6705 18.3441 30.7538 18.2295 30.8751 18.1651L32.0004 17.568C32.627 17.2356 32.8738 16.476 32.5623 15.8388L32.0028 14.6943ZM23.7699 10.6069C24.6445 10.6069 25.356 11.3185 25.356 12.193C25.356 13.0676 24.6445 13.7791 23.7699 13.7791C22.8954 13.7791 22.1839 13.0676 22.1839 12.193C22.1839 11.3185 22.8954 10.6069 23.7699 10.6069ZM22.9513 17.6607C22.8668 17.7452 22.7561 17.7874 22.6454 17.7874C22.5347 17.7874 22.424 17.7452 22.3396 17.6607C22.1706 17.4918 22.1706 17.2179 22.3396 17.049L28.0492 11.3394C28.2181 11.1704 28.492 11.1704 28.6609 11.3394C28.8298 11.5083 28.8298 11.7822 28.6609 11.9511L22.9513 17.6607ZM27.2305 18.3932C26.3559 18.3932 25.6444 17.6817 25.6444 16.8071C25.6444 15.9325 26.3559 15.221 27.2305 15.221C28.105 15.221 28.8166 15.9325 28.8166 16.8071C28.8166 17.6817 28.105 18.3932 27.2305 18.3932Z" fill="white"/>
<path d="M27.2305 16.0859C26.833 16.0859 26.5095 16.4093 26.5095 16.8069C26.5095 17.2044 26.8329 17.5278 27.2305 17.5278C27.628 17.5278 27.9514 17.2044 27.9514 16.8069C27.9514 16.4093 27.628 16.0859 27.2305 16.0859Z" fill="white"/>
<path d="M23.7698 11.4719C23.3722 11.4719 23.0488 11.7953 23.0488 12.1929C23.0488 12.5904 23.3722 12.9138 23.7698 12.9138C24.1673 12.9138 24.4907 12.5904 24.4907 12.1929C24.4907 11.7954 24.1673 11.4719 23.7698 11.4719Z" fill="white"/>
</g>
<defs>
<clipPath id="clip0">
<rect width="15" height="15" fill="white" transform="translate(18 7)"/>
</clipPath>
</defs>
</svg>
