<svg width="14" height="14" viewBox="0 0 14 14" fill="none" xmlns="http://www.w3.org/2000/svg">
<path d="M6.99998 0.333313C5.68144 0.333313 4.39251 0.724306 3.29618 1.45685C2.19985 2.18939 1.34537 3.23058 0.840786 4.44876C0.336202 5.66693 0.204179 7.00738 0.461414 8.30058C0.718649 9.59379 1.35359 10.7817 2.28594 11.714C3.21829 12.6464 4.40617 13.2813 5.69938 13.5385C6.99259 13.7958 8.33303 13.6638 9.55121 13.1592C10.7694 12.6546 11.8106 11.8001 12.5431 10.7038C13.2757 9.60745 13.6666 8.31852 13.6666 6.99998C13.6666 6.1245 13.4942 5.25759 13.1592 4.44876C12.8241 3.63992 12.3331 2.90499 11.714 2.28593C11.095 1.66688 10.36 1.17581 9.55121 0.840783C8.74237 0.505751 7.87546 0.333313 6.99998 0.333313ZM9.66665 7.66665H7.66665V9.66665C7.66665 9.84346 7.59641 10.013 7.47139 10.1381C7.34636 10.2631 7.17679 10.3333 6.99998 10.3333C6.82317 10.3333 6.6536 10.2631 6.52858 10.1381C6.40355 10.013 6.33332 9.84346 6.33332 9.66665V7.66665H4.33332C4.1565 7.66665 3.98694 7.59641 3.86191 7.47138C3.73689 7.34636 3.66665 7.17679 3.66665 6.99998C3.66665 6.82317 3.73689 6.6536 3.86191 6.52858C3.98694 6.40355 4.1565 6.33331 4.33332 6.33331H6.33332V4.33331C6.33332 4.1565 6.40355 3.98693 6.52858 3.86191C6.6536 3.73688 6.82317 3.66665 6.99998 3.66665C7.17679 3.66665 7.34636 3.73688 7.47139 3.86191C7.59641 3.98693 7.66665 4.1565 7.66665 4.33331V6.33331H9.66665C9.84346 6.33331 10.013 6.40355 10.1381 6.52858C10.2631 6.6536 10.3333 6.82317 10.3333 6.99998C10.3333 7.17679 10.2631 7.34636 10.1381 7.47138C10.013 7.59641 9.84346 7.66665 9.66665 7.66665Z" fill="#C07E29"/>
</svg>
