<svg width="16" height="16" viewBox="0 0 16 16" fill="none" xmlns="http://www.w3.org/2000/svg">
<path d="M8.00002 0.666687C6.54963 0.666687 5.1318 1.09678 3.92584 1.90258C2.71988 2.70837 1.77995 3.85368 1.22491 5.19367C0.669864 6.53367 0.52464 8.00815 0.807598 9.43068C1.09056 10.8532 1.78899 12.1599 2.81457 13.1855C3.84016 14.2111 5.14683 14.9095 6.56936 15.1924C7.99189 15.4754 9.46638 15.3302 10.8064 14.7751C12.1464 14.2201 13.2917 13.2802 14.0975 12.0742C14.9033 10.8682 15.3334 9.45042 15.3334 8.00002C15.3311 6.0558 14.5577 4.19187 13.1829 2.8171C11.8082 1.44233 9.94424 0.668981 8.00002 0.666687ZM8.00002 14C6.81334 14 5.6533 13.6481 4.6666 12.9888C3.67991 12.3295 2.91087 11.3925 2.45675 10.2961C2.00262 9.19976 1.8838 7.99336 2.11531 6.82948C2.34682 5.66559 2.91827 4.59649 3.75738 3.75738C4.5965 2.91826 5.6656 2.34682 6.82948 2.11531C7.99337 1.8838 9.19977 2.00262 10.2961 2.45674C11.3925 2.91087 12.3296 3.6799 12.9888 4.6666C13.6481 5.65329 14 6.81333 14 8.00002C13.9983 9.59078 13.3656 11.1159 12.2407 12.2407C11.1159 13.3655 9.59078 13.9983 8.00002 14ZM11.3334 8.00002C11.3334 8.17683 11.2631 8.3464 11.1381 8.47142C11.0131 8.59645 10.8435 8.66669 10.6667 8.66669H5.33336C5.15655 8.66669 4.98698 8.59645 4.86195 8.47142C4.73693 8.3464 4.66669 8.17683 4.66669 8.00002C4.66669 7.82321 4.73693 7.65364 4.86195 7.52862C4.98698 7.40359 5.15655 7.33335 5.33336 7.33335H10.6667C10.8435 7.33335 11.0131 7.40359 11.1381 7.52862C11.2631 7.65364 11.3334 7.82321 11.3334 8.00002Z" fill="#212121"/>
</svg>
