<svg width="44" height="44" viewBox="0 0 44 44" fill="none" xmlns="http://www.w3.org/2000/svg">
<circle cx="22" cy="22" r="22" fill="white"/>
<path d="M15.2069 19.391L22.0003 23.2604L28.7902 19.393L23.1154 16.2008V13.5995C23.5502 13.9845 24.2109 13.974 24.6325 13.5734C25.076 13.1518 25.0891 12.4554 24.6619 12.0178L24.134 11.4772C23.5771 10.9069 22.8411 10.1531 22.7958 10.1077C22.3515 9.66116 21.6291 9.67238 21.1971 10.1146L19.3386 12.0178C18.9113 12.4554 18.9245 13.1518 19.368 13.5734C19.7918 13.976 20.4542 13.9812 20.8851 13.5997V16.1568L15.2069 19.391Z" fill="#C07E29"/>
<path d="M9.34631 32.1824L11.909 32.9521C12.4947 33.128 13.1201 32.8048 13.3005 32.2201C13.4719 31.6649 13.1758 31.0802 12.6355 30.8746L15.1694 29.6009L20.8851 32.8564V25.1659L14.0917 21.2965V27.6732L11.6229 28.9141C11.7719 28.3621 11.4665 27.7821 10.9105 27.5925C10.3285 27.3941 9.69356 27.6986 9.49231 28.2728L8.61717 30.7706C8.41072 31.3596 8.74161 32.0008 9.34631 32.1824Z" fill="#C07E29"/>
<path d="M23.1152 32.8564V25.1659L29.9086 21.2965V27.6732L32.3773 28.9141C32.2283 28.3621 32.5337 27.7821 33.0897 27.5925C33.6718 27.3941 34.3067 27.6985 34.5079 28.2728L35.3831 30.7705C35.5896 31.3599 35.2582 32.0009 34.6539 32.1824L32.0912 32.952C31.5008 33.1294 30.8786 32.8 30.6997 32.22C30.5284 31.6648 30.8244 31.0801 31.3648 30.8745L28.8308 29.6008L23.1152 32.8564Z" fill="#C07E29"/>
</svg>
