<svg width="44" height="44" viewBox="0 0 44 44" fill="none" xmlns="http://www.w3.org/2000/svg">
<circle cx="22" cy="22" r="22" fill="white"/>
<g clip-path="url(#clip0)">
<path d="M17.3919 23.5631C18.0101 23.5631 18.6077 23.5232 19.1732 23.4489V17.2504C18.6078 17.1762 18.0101 17.1362 17.3919 17.1362C13.8617 17.1362 11 18.4342 11 20.0353V20.664C11 22.2651 13.8617 23.5631 17.3919 23.5631Z" fill="#C07E29"/>
<path d="M17.3919 26.7993C18.0101 26.7993 18.6077 26.7594 19.1732 26.6851V24.8683C18.6076 24.9425 18.0103 24.983 17.3919 24.983C14.3105 24.983 11.7386 23.994 11.1344 22.6777C11.0465 22.8695 11 23.068 11 23.2715V23.9002C11 25.5014 13.8617 26.7993 17.3919 26.7993Z" fill="#C07E29"/>
<path d="M19.1732 28.2463V28.1051C18.6076 28.1794 18.0103 28.2198 17.3919 28.2198C14.3105 28.2198 11.7386 27.2308 11.1344 25.9146C11.0465 26.1062 11 26.3048 11 26.5083V27.137C11 28.7382 13.8617 30.0361 17.3919 30.0361C18.0978 30.0361 18.7768 29.9841 19.4118 29.8882C19.2544 29.5662 19.1732 29.2267 19.1732 28.875V28.2463Z" fill="#C07E29"/>
<path d="M26.6082 12.2261C23.0781 12.2261 20.2163 13.524 20.2163 15.1251V15.7539C20.2163 17.355 23.0781 18.6529 26.6082 18.6529C30.1383 18.6529 33.0001 17.355 33.0001 15.7539V15.1251C33.0001 13.524 30.1383 12.2261 26.6082 12.2261Z" fill="#C07E29"/>
<path d="M26.6082 20.0734C23.5268 20.0734 20.9549 19.0844 20.3507 17.7681C20.2628 17.9597 20.2163 18.1583 20.2163 18.3618V18.9906C20.2163 20.5917 23.0781 21.8896 26.6082 21.8896C30.1383 21.8896 33.0001 20.5917 33.0001 18.9906V18.3618C33.0001 18.1583 32.9536 17.9597 32.8656 17.7681C32.2615 19.0844 29.6896 20.0734 26.6082 20.0734Z" fill="#C07E29"/>
<path d="M26.6082 23.3102C23.5268 23.3102 20.9549 22.3212 20.3507 21.0049C20.2628 21.1966 20.2163 21.3951 20.2163 21.5987V22.2274C20.2163 23.8286 23.0781 25.1265 26.6082 25.1265C30.1383 25.1265 33.0001 23.8286 33.0001 22.2274V21.5987C33.0001 21.3951 32.9536 21.1966 32.8656 21.0049C32.2615 22.3212 29.6896 23.3102 26.6082 23.3102Z" fill="#C07E29"/>
<path d="M26.6082 26.7213C23.5268 26.7213 20.9549 25.7323 20.3507 24.416C20.2628 24.6077 20.2163 24.8062 20.2163 25.0097V25.6385C20.2163 27.2396 23.0781 28.5375 26.6082 28.5375C30.1383 28.5375 33.0001 27.2396 33.0001 25.6385V25.0097C33.0001 24.8062 32.9536 24.6076 32.8656 24.416C32.2615 25.7322 29.6896 26.7213 26.6082 26.7213Z" fill="#C07E29"/>
<path d="M26.6082 29.9581C23.5268 29.9581 20.9549 28.9692 20.3507 27.6529C20.2628 27.8446 20.2163 28.0432 20.2163 28.2466V28.8753C20.2163 30.4765 23.0781 31.7744 26.6082 31.7744C30.1383 31.7744 33.0001 30.4765 33.0001 28.8753V28.2465C33.0001 28.043 32.9536 27.8445 32.8656 27.6528C32.2615 28.9691 29.6896 29.9581 26.6082 29.9581Z" fill="#C07E29"/>
</g>
<defs>
<clipPath id="clip0">
<rect width="22" height="22" fill="white" transform="translate(11 11)"/>
</clipPath>
</defs>
</svg>
