<svg width="44" height="44" viewBox="0 0 44 44" fill="none" xmlns="http://www.w3.org/2000/svg">
<circle cx="22" cy="22" r="22" fill="white"/>
<path d="M32.9914 32.5873L30.4434 18.3714C30.3408 17.7991 29.8429 17.3825 29.2614 17.3825H25.0237C25.8183 16.5999 26.312 15.5127 26.312 14.312C26.312 11.9343 24.3777 10 22 10C19.6223 10 17.6879 11.9343 17.6879 14.312C17.6879 15.5127 18.1817 16.5999 18.9762 17.3825H14.7386C14.1571 17.3825 13.6592 17.7991 13.5566 18.3714L11.0086 32.5873C10.9459 32.9373 11.0414 33.2971 11.2696 33.5697C11.4978 33.8424 11.8351 33.9999 12.1906 33.9999H31.8094C32.1649 33.9999 32.5022 33.8424 32.7303 33.5697C32.9585 33.2971 33.0541 32.9373 32.9914 32.5873ZM22 12.4016C23.0534 12.4016 23.9104 13.2586 23.9104 14.312C23.9104 15.3654 23.0534 16.2225 22 16.2225C20.9466 16.2225 20.0895 15.3654 20.0895 14.312C20.0895 13.2586 20.9466 12.4016 22 12.4016ZM21.6862 28.5825C21.6237 28.6978 21.503 28.7696 21.3718 28.7696H20.8054C20.6784 28.7696 20.5609 28.7023 20.4967 28.5927L19.0948 26.1995L18.1983 27.1147V28.2168C18.1983 28.5221 17.9507 28.7696 17.6454 28.7696C17.3401 28.7696 17.0926 28.5221 17.0926 28.2168V23.8461C17.0926 23.5408 17.3401 23.2932 17.6454 23.2932C17.9507 23.2932 18.1983 23.5408 18.1983 23.8461V25.725L20.326 23.4089C20.3937 23.3352 20.4893 23.2932 20.5894 23.2932H21.0756C21.2192 23.2932 21.3488 23.379 21.4049 23.5112C21.4609 23.6434 21.4325 23.7963 21.3328 23.8995L19.8569 25.4261L21.6717 28.2168C21.7432 28.3269 21.7488 28.4672 21.6862 28.5825ZM27.1333 27.8532C27.1333 27.962 27.0837 28.0652 26.9987 28.133C26.7781 28.3091 26.4874 28.4671 26.1267 28.607C25.6871 28.7776 25.2419 28.8629 24.7912 28.8629C24.2183 28.8629 23.7192 28.7428 23.2931 28.5024C22.8674 28.2622 22.5473 27.9185 22.3331 27.4714C22.1189 27.0244 22.0119 26.5382 22.0119 26.0126C22.0119 25.4424 22.1314 24.9355 22.3705 24.4923C22.6095 24.049 22.9595 23.7092 23.4203 23.4725C23.7712 23.2907 24.2084 23.1997 24.7314 23.1997C25.4113 23.1997 25.9423 23.3424 26.3246 23.6275C26.4902 23.7511 26.6302 23.8951 26.7446 24.0595C26.854 24.2166 26.8762 24.4185 26.8036 24.5955C26.7311 24.7727 26.5738 24.9012 26.3856 24.9364L26.3843 24.9366C26.1639 24.9779 25.9403 24.8802 25.821 24.6903C25.7446 24.5688 25.6472 24.4648 25.5289 24.3783C25.3159 24.2226 25.0501 24.1448 24.7314 24.1448C24.2482 24.1448 23.864 24.2981 23.579 24.6043C23.2938 24.9107 23.1513 25.3652 23.1513 25.9678C23.1513 26.6179 23.2956 27.1053 23.5846 27.4303C23.8734 27.7553 24.2519 27.9178 24.7202 27.9178C24.9518 27.9178 25.184 27.8724 25.4169 27.7814C25.6496 27.6905 25.8495 27.5803 26.0164 27.4509V26.7559H25.2115C24.9566 26.7559 24.7502 26.5494 24.7502 26.2947C24.7502 26.0399 24.9567 25.8334 25.2115 25.8334H26.7756C26.9732 25.8334 27.1333 25.9936 27.1333 26.1911V27.8532Z" fill="#C07E29"/>
</svg>
