<svg width="24" height="24" viewBox="0 0 24 24" fill="none" xmlns="http://www.w3.org/2000/svg">
<path d="M23.0871 3.71085L12.3043 0.0495051C12.0491 0.000425397 11.843 0.000425397 11.6418 0.0495051L0.854055 3.71576C-0.0244711 3.98569 6.86988e-05 4.67772 6.86988e-05 4.69735V18.7881C6.86988e-05 19.1955 0.255283 19.5538 0.662644 19.7059L11.6418 23.9415C11.8381 24.0249 12.2553 23.9906 12.3583 23.9415L23.3374 19.7108C23.7448 19.5587 24 19.2004 24 18.793V4.69735C24 4.39306 23.8135 3.8041 23.0871 3.71085ZM12 2.04214L20.0687 4.74643L12 7.81391L3.93135 4.74643L12 2.04214ZM1.9927 18.0765V6.17955L10.9792 9.60041V21.5464L1.9927 18.0765ZM22.0074 18.0765L13.0209 21.5464V9.62985L22.0074 6.17955V18.0765Z" fill="#C07E29"/>
</svg>
