<svg width="24" height="24" viewBox="0 0 24 24" fill="none" xmlns="http://www.w3.org/2000/svg">
<path d="M23.9993 14.4272C24.004 14.3048 23.9848 14.1795 23.9385 14.0579L20.9905 6.31302C21.9122 5.85079 22.5467 4.89716 22.5467 3.79776C22.5467 3.27998 22.127 2.86026 21.6092 2.86026C21.0915 2.86026 20.6717 3.27998 20.6717 3.79776C20.6717 4.31348 20.2531 4.73329 19.7378 4.73526C18.9236 4.73329 18.3079 4.31882 17.4567 3.74577C16.7163 3.24735 15.8899 2.69207 14.7672 2.31435C14.5309 1.00091 13.3804 0.000976562 12 0.000976562C10.6191 0.000976562 9.46832 1.00162 9.23254 2.31566C8.10075 2.69887 7.24884 3.27079 6.54328 3.74582C5.69203 4.31891 5.07628 4.73334 4.26215 4.73531C3.74686 4.73334 3.32826 4.31352 3.32826 3.79781C3.32826 3.28002 2.90854 2.8603 2.39076 2.8603C1.87298 2.8603 1.45326 3.28002 1.45326 3.79781C1.45326 4.89731 2.08776 5.85088 3.00951 6.31312L0.0614957 14.0578C0.0151832 14.1795 -0.00403556 14.3048 0.000698816 14.4272C0.000651941 14.4309 0.000136316 14.4344 0.000136316 14.4382C0.000136316 16.7902 1.91367 18.7038 4.26571 18.7038C6.61776 18.7038 8.53129 16.7902 8.53129 14.4382C8.53129 14.3052 8.50321 14.1788 8.45325 14.0642C8.45245 14.0621 8.45198 14.06 8.45118 14.0579L5.53973 6.40912C6.30895 6.1634 6.95686 5.72756 7.59037 5.30113C8.18461 4.9011 8.79426 4.49095 9.55097 4.19352C9.88289 4.78016 10.419 5.23631 11.0626 5.46454V22.1256H7.31264V24.0006H16.6875V22.1256H12.9375V5.46459C13.5809 5.2364 14.1169 4.78045 14.4488 4.19399C15.2054 4.49137 15.8157 4.90124 16.4097 5.30113C17.0432 5.7276 17.6911 6.16345 18.4603 6.40912L15.5489 14.0579C15.5481 14.06 15.5476 14.0621 15.5468 14.0642C15.4968 14.1788 15.4687 14.3052 15.4687 14.4382C15.4687 16.7902 17.3823 18.7038 19.7343 18.7038C22.0864 18.7038 23.9999 16.7902 23.9999 14.4382C23.9999 14.4345 23.9993 14.4309 23.9993 14.4272ZM4.26571 16.8288C3.28017 16.8288 2.43187 16.2292 2.06667 15.3757H6.46481C6.09951 16.2292 5.25131 16.8288 4.26571 16.8288ZM6.23292 13.5008H2.27971L4.25629 8.30798L6.23292 13.5008ZM12 3.75084C11.4831 3.75084 11.0625 3.33027 11.0625 2.81334C11.0625 2.2964 11.4831 1.87584 12 1.87584C12.5169 1.87584 12.9375 2.2964 12.9375 2.81334C12.9375 3.33027 12.517 3.75084 12 3.75084ZM19.7437 8.30793L21.7203 13.5007H17.767L19.7437 8.30793ZM19.7343 16.8288C18.7487 16.8288 17.9004 16.2292 17.5352 15.3757H21.9334C21.5681 16.2292 20.7199 16.8288 19.7343 16.8288Z" fill="#C07E29"/>
</svg>
