<svg width="20" height="20" viewBox="0 0 20 20" fill="none" xmlns="http://www.w3.org/2000/svg">
<path d="M16.9998 12.381C17.2098 12.381 17.4144 12.3181 17.5847 12.2012C17.7551 12.0843 17.8824 11.9192 17.9488 11.7295L19.9488 6.01524C19.9988 5.87206 20.0125 5.71961 19.9885 5.57043C19.9646 5.42126 19.9038 5.27963 19.8111 5.15723C19.7184 5.03483 19.5965 4.93516 19.4555 4.86643C19.3144 4.79769 19.1582 4.76187 18.9998 4.7619H4.99994V0.952381C4.99994 0.699794 4.89458 0.457552 4.70705 0.278946C4.51952 0.10034 4.26517 0 3.99995 0H0.999988C0.734775 0 0.480424 0.10034 0.29289 0.278946C0.105356 0.457552 0 0.699794 0 0.952381C0 1.20497 0.105356 1.44721 0.29289 1.62582C0.480424 1.80442 0.734775 1.90476 0.999988 1.90476H2.99996V15.2381C2.99996 15.4907 3.10532 15.7329 3.29285 15.9115C3.48039 16.0901 3.73474 16.1905 3.99995 16.1905H15.9998C16.265 16.1905 16.5194 16.0901 16.7069 15.9115C16.8944 15.7329 16.9998 15.4907 16.9998 15.2381C16.9998 14.9855 16.8944 14.7433 16.7069 14.5647C16.5194 14.3861 16.265 14.2857 15.9998 14.2857H4.99994V12.381H16.9998ZM4.49995 17.1429C4.79661 17.1429 5.08662 17.2266 5.33329 17.3836C5.57996 17.5406 5.77222 17.7637 5.88575 18.0247C5.99928 18.2858 6.02898 18.573 5.97111 18.8501C5.91323 19.1272 5.77037 19.3818 5.56059 19.5816C5.35082 19.7814 5.08355 19.9174 4.79258 19.9725C4.50161 20.0277 4.20001 19.9994 3.92593 19.8913C3.65184 19.7831 3.41758 19.6 3.25276 19.3651C3.08794 19.1302 2.99996 18.854 2.99996 18.5714C2.99996 18.1925 3.158 17.8292 3.4393 17.5613C3.7206 17.2934 4.10213 17.1429 4.49995 17.1429ZM14.4998 17.1429C14.7965 17.1429 15.0865 17.2266 15.3332 17.3836C15.5798 17.5406 15.7721 17.7637 15.8856 18.0247C15.9992 18.2858 16.0289 18.573 15.971 18.8501C15.9131 19.1272 15.7702 19.3818 15.5605 19.5816C15.3507 19.7814 15.0834 19.9174 14.7925 19.9725C14.5015 20.0277 14.1999 19.9994 13.9258 19.8913C13.6517 19.7831 13.4175 19.6 13.2526 19.3651C13.0878 19.1302 12.9998 18.854 12.9998 18.5714C12.9998 18.1925 13.1579 17.8292 13.4392 17.5613C13.7205 17.2934 14.102 17.1429 14.4998 17.1429Z" fill="white"/>
</svg>
