<svg width="14" height="18" viewBox="0 0 14 18" fill="none" xmlns="http://www.w3.org/2000/svg">
<path d="M0.333374 10.667C0.333374 11.9855 0.724367 13.2745 1.45691 14.3708C2.18945 15.4671 3.23064 16.3216 4.44882 16.8262C5.66699 17.3308 7.00744 17.4628 8.30064 17.2056C9.59385 16.9483 10.7817 16.3134 11.7141 15.381C12.6464 14.4487 13.2814 13.2608 13.5386 11.9676C13.7958 10.6744 13.6638 9.33394 13.1592 8.11577C12.6547 6.8976 11.8002 5.8564 10.7038 5.12386C9.60751 4.39132 8.31858 4.00033 7.00004 4.00033C5.23193 4.00033 3.53624 4.7027 2.286 5.95295C1.03575 7.20319 0.333374 8.89888 0.333374 10.667ZM6.16671 6.66699C6.16671 6.44598 6.2545 6.23402 6.41079 6.07774C6.56707 5.92146 6.77903 5.83366 7.00004 5.83366C7.22105 5.83366 7.43302 5.92146 7.5893 6.07774C7.74558 6.23402 7.83337 6.44598 7.83337 6.66699V9.83366H10.3334C10.5544 9.83366 10.7663 9.92146 10.9226 10.0777C11.0789 10.234 11.1667 10.446 11.1667 10.667C11.1667 10.888 11.0789 11.1 10.9226 11.2562C10.7663 11.4125 10.5544 11.5003 10.3334 11.5003H7.00004C6.77903 11.5003 6.56707 11.4125 6.41079 11.2562C6.2545 11.1 6.16671 10.888 6.16671 10.667V6.66699ZM3.66671 2.33366C3.44569 2.33366 3.23373 2.24586 3.07745 2.08958C2.92117 1.9333 2.83337 1.72134 2.83337 1.50033C2.83337 1.27931 2.92117 1.06735 3.07745 0.91107C3.23373 0.75479 3.44569 0.666992 3.66671 0.666992H10.3334C10.5544 0.666992 10.7663 0.75479 10.9226 0.91107C11.0789 1.06735 11.1667 1.27931 11.1667 1.50033C11.1667 1.72134 11.0789 1.9333 10.9226 2.08958C10.7663 2.24586 10.5544 2.33366 10.3334 2.33366H3.66671Z" fill="#C07E29"/>
</svg>
