<svg width="15" height="15" viewBox="0 0 15 15" fill="none" xmlns="http://www.w3.org/2000/svg">
<path d="M14.6667 3.7102C14.6667 3.69434 14.6667 3.69434 14.6667 3.67849C14.6508 3.64678 14.6508 3.61507 14.6349 3.58335V3.5675C14.6191 3.53579 14.5874 3.50408 14.5715 3.48822L14.5557 3.47237C14.5398 3.45651 14.5081 3.44065 14.4922 3.4248L14.4764 3.40894H14.4605L14.4447 3.39309L7.70607 0.0475666C7.57923 -0.0158556 7.42067 -0.0158556 7.27797 0.0475666L5.01063 1.17331L11.7809 4.64568L11.7968 4.66153C11.8127 4.66153 11.8127 4.67739 11.8285 4.67739C11.8444 4.69324 11.8444 4.7091 11.8602 4.72495C11.8602 4.74081 11.8602 4.74081 11.8602 4.75667V4.77252V8.45101C11.8602 8.51443 11.8285 8.562 11.7809 8.59371L10.4174 9.30721C10.3381 9.35477 10.243 9.32306 10.1954 9.24379C10.1795 9.22793 10.1795 9.19622 10.1795 9.16451V5.5653L3.32994 2.02951L3.31408 2.01365L0.571072 3.37723L0.555216 3.39309H0.53936L0.523505 3.40894C0.507649 3.4248 0.475938 3.44065 0.460083 3.45651L0.444227 3.47237C0.412516 3.50408 0.396661 3.53579 0.364949 3.5675V3.58335C0.349094 3.61507 0.333238 3.64678 0.333238 3.67849C0.333238 3.69434 0.333238 3.69434 0.333238 3.7102C0.333238 3.74191 0.317383 3.75777 0.317383 3.78948V3.80533V11.194C0.317383 11.3684 0.412516 11.5428 0.586927 11.6221L7.26211 14.9518C7.35725 14.9994 7.46824 15.0152 7.57923 14.9835L7.61094 14.9676C7.64265 14.9676 7.6585 14.9518 7.69021 14.9359L14.413 11.6063C14.5715 11.527 14.6825 11.3684 14.6825 11.1782V3.80533V3.78948C14.6667 3.75777 14.6667 3.74191 14.6667 3.7102Z" fill="#C07E29"/>
</svg>
