<svg width="16" height="18" viewBox="0 0 16 18" fill="none" xmlns="http://www.w3.org/2000/svg">
<path d="M1.14402 2.15767L10.5715 0.811417C10.6247 0.803785 10.679 0.807679 10.7305 0.822836C10.7821 0.837993 10.8298 0.864059 10.8704 0.899267C10.911 0.934474 10.9436 0.978001 10.9659 1.0269C10.9882 1.07579 10.9998 1.12892 10.9998 1.18267V16.8172C10.9998 16.8708 10.9882 16.9239 10.966 16.9727C10.9437 17.0216 10.9112 17.0651 10.8707 17.1002C10.8301 17.1354 10.7825 17.1615 10.731 17.1767C10.6796 17.1919 10.6254 17.1959 10.5723 17.1884L1.14327 15.8422C0.964488 15.8167 0.800893 15.7276 0.68254 15.5912C0.564187 15.4548 0.499025 15.2803 0.499023 15.0997V2.90017C0.499025 2.71958 0.564187 2.54505 0.68254 2.40865C0.800893 2.27225 0.964488 2.18313 1.14327 2.15767H1.14402ZM11.7498 2.24992H14.7498C14.9487 2.24992 15.1395 2.32893 15.2801 2.46959C15.4208 2.61024 15.4998 2.801 15.4998 2.99992V14.9999C15.4998 15.1988 15.4208 15.3896 15.2801 15.5302C15.1395 15.6709 14.9487 15.7499 14.7498 15.7499H11.7498V2.24992ZM6.64977 8.99992L8.74977 5.99992H6.94977L5.74977 7.71442L4.54977 5.99992H2.74977L4.84977 8.99992L2.74977 11.9999H4.54977L5.74977 10.2854L6.94977 11.9999H8.74977L6.64977 8.99992Z" fill="#C07E29"/>
</svg>
