<svg width="14" height="11" viewBox="0 0 14 11" fill="none" xmlns="http://www.w3.org/2000/svg">
<path d="M13.6666 0.694743V3.36141L6.99992 6.02808L0.333252 3.36141V0.694743C0.333252 0.517932 0.40349 0.348363 0.528514 0.223338C0.653538 0.0983142 0.823108 0.0280762 0.999919 0.0280762H12.9999C13.1767 0.0280762 13.3463 0.0983142 13.4713 0.223338C13.5963 0.348363 13.6666 0.517932 13.6666 0.694743ZM0.333252 4.79741V10.0281C0.333252 10.2049 0.40349 10.3745 0.528514 10.4995C0.653538 10.6245 0.823108 10.6947 0.999919 10.6947H12.9999C13.1767 10.6947 13.3463 10.6245 13.4713 10.4995C13.5963 10.3745 13.6666 10.2049 13.6666 10.0281V4.79741L6.99992 7.46408L0.333252 4.79741Z" fill="#C07E29"/>
</svg>
