<svg width="22" height="22" viewBox="0 0 22 22" fill="none" xmlns="http://www.w3.org/2000/svg">
<path d="M3.51991 4.934L0.392908 1.808L1.80791 0.392998L21.6069 20.193L20.1919 21.607L16.8819 18.297C15.1231 19.4126 13.0826 20.0033 10.9999 20C5.60791 20 1.12191 16.12 0.180908 11C0.610938 8.67072 1.78254 6.54289 3.52091 4.934H3.51991ZM13.7569 15.172L12.2929 13.708C11.733 13.9759 11.1037 14.0635 10.4918 13.9588C9.88 13.854 9.31571 13.5621 8.87678 13.1231C8.43785 12.6842 8.14588 12.1199 8.04112 11.5081C7.93637 10.8962 8.02399 10.267 8.29191 9.707L6.82791 8.243C6.19162 9.20449 5.90718 10.3563 6.02274 11.5035C6.1383 12.6506 6.64676 13.7226 7.46203 14.5379C8.27729 15.3531 9.34926 15.8616 10.4964 15.9772C11.6436 16.0927 12.7954 15.8083 13.7569 15.172ZM6.97391 2.76C8.22091 2.27 9.57991 2 10.9999 2C16.3919 2 20.8779 5.88 21.8189 11C21.5125 12.6657 20.8238 14.2376 19.8069 15.592L15.9469 11.732C16.0616 10.9596 15.9937 10.1711 15.7488 9.42965C15.5039 8.6882 15.0888 8.01441 14.5366 7.46227C13.9845 6.91012 13.3107 6.49497 12.5693 6.25007C11.8278 6.00517 11.0393 5.93734 10.2669 6.052L6.97391 2.761V2.76Z" fill="#E4C380"/>
</svg>
