<svg width="16" height="14" viewBox="0 0 16 14" fill="none" xmlns="http://www.w3.org/2000/svg">
<path d="M4.296 12.848C4.232 12.688 4.136 12.4693 4.008 12.192C3.88 11.904 3.736 11.5893 3.576 11.248C3.42667 10.896 3.26133 10.528 3.08 10.144C2.89867 9.74933 2.71733 9.37067 2.536 9.008C2.36533 8.64533 2.2 8.304 2.04 7.984C1.88 7.664 1.74133 7.40267 1.624 7.2C1.48533 8.42667 1.384 9.59467 1.32 10.704C1.256 11.8027 1.20267 12.9013 1.16 14H0.184C0.226667 12.624 0.296 11.2373 0.392 9.84C0.498667 8.44267 0.632 7.072 0.792 5.728H1.864C2.00267 5.952 2.17867 6.272 2.392 6.688C2.616 7.104 2.856 7.57867 3.112 8.112C3.37867 8.63467 3.65067 9.20533 3.928 9.824C4.216 10.432 4.504 11.0507 4.792 11.68C5.08 11.0507 5.36267 10.432 5.64 9.824C5.928 9.20533 6.2 8.63467 6.456 8.112C6.72267 7.57867 6.96267 7.104 7.176 6.688C7.38933 6.272 7.57067 5.952 7.72 5.728H8.776C8.936 7.072 9.064 8.44267 9.16 9.84C9.26667 11.2373 9.34133 12.624 9.384 14H8.392C8.34933 12.9013 8.296 11.8027 8.232 10.704C8.168 9.59467 8.06667 8.42667 7.928 7.2C7.81067 7.41333 7.672 7.68 7.512 8C7.352 8.30933 7.18133 8.64533 7 9.008C6.82933 9.37067 6.65333 9.74933 6.472 10.144C6.29067 10.528 6.12 10.896 5.96 11.248C5.81067 11.5893 5.672 11.904 5.544 12.192C5.416 12.4693 5.32 12.688 5.256 12.848H4.296ZM12.8985 6.368C13.5065 6.368 13.9172 6.26667 14.1305 6.064C14.3438 5.85067 14.4505 5.58933 14.4505 5.28C14.4505 5.056 14.3972 4.86933 14.2905 4.72C14.1838 4.57067 14.0452 4.448 13.8745 4.352C13.7038 4.256 13.5012 4.192 13.2665 4.16C13.0425 4.11733 12.8132 4.096 12.5785 4.096H12.3705V3.376H12.6105C12.8025 3.376 12.9892 3.36533 13.1705 3.344C13.3625 3.312 13.5278 3.25867 13.6665 3.184C13.8052 3.09867 13.9172 2.992 14.0025 2.864C14.0878 2.736 14.1305 2.56533 14.1305 2.352C14.1305 2.04267 14.0292 1.824 13.8265 1.696C13.6345 1.568 13.3732 1.504 13.0425 1.504C12.7012 1.504 12.4132 1.55733 12.1785 1.664C11.9438 1.76 11.7572 1.856 11.6185 1.952L11.2985 1.28C11.4158 1.184 11.6292 1.072 11.9385 0.943999C12.2478 0.815999 12.6265 0.751999 13.0745 0.751999C13.7678 0.751999 14.2585 0.895999 14.5465 1.184C14.8452 1.46133 14.9945 1.824 14.9945 2.272C14.9945 2.93333 14.6692 3.39733 14.0185 3.664C14.4132 3.78133 14.7332 3.97333 14.9785 4.24C15.2238 4.50667 15.3465 4.864 15.3465 5.312C15.3465 5.55733 15.2985 5.792 15.2025 6.016C15.1172 6.22933 14.9785 6.42133 14.7865 6.592C14.5945 6.76267 14.3438 6.896 14.0345 6.992C13.7358 7.088 13.3732 7.136 12.9465 7.136C12.5412 7.136 12.2052 7.104 11.9385 7.04C11.6718 6.96533 11.4532 6.88533 11.2825 6.8L11.4905 6.048C11.6398 6.12267 11.8265 6.19733 12.0505 6.272C12.2852 6.336 12.5678 6.368 12.8985 6.368Z" fill="#6C6C75"/>
</svg>
