<svg width="16" height="14" viewBox="0 0 16 14" fill="none" xmlns="http://www.w3.org/2000/svg">
<path d="M4.296 12.848C4.232 12.688 4.136 12.4693 4.008 12.192C3.88 11.904 3.736 11.5893 3.576 11.248C3.42667 10.896 3.26133 10.528 3.08 10.144C2.89867 9.74933 2.71733 9.37067 2.536 9.008C2.36533 8.64533 2.2 8.304 2.04 7.984C1.88 7.664 1.74133 7.40267 1.624 7.2C1.48533 8.42667 1.384 9.59467 1.32 10.704C1.256 11.8027 1.20267 12.9013 1.16 14H0.184C0.226667 12.624 0.296 11.2373 0.392 9.84C0.498667 8.44267 0.632 7.072 0.792 5.728H1.864C2.00267 5.952 2.17867 6.272 2.392 6.688C2.616 7.104 2.856 7.57867 3.112 8.112C3.37867 8.63467 3.65067 9.20533 3.928 9.824C4.216 10.432 4.504 11.0507 4.792 11.68C5.08 11.0507 5.36267 10.432 5.64 9.824C5.928 9.20533 6.2 8.63467 6.456 8.112C6.72267 7.57867 6.96267 7.104 7.176 6.688C7.38933 6.272 7.57067 5.952 7.72 5.728H8.776C8.936 7.072 9.064 8.44267 9.16 9.84C9.26667 11.2373 9.34133 12.624 9.384 14H8.392C8.34933 12.9013 8.296 11.8027 8.232 10.704C8.168 9.59467 8.06667 8.42667 7.928 7.2C7.81067 7.41333 7.672 7.68 7.512 8C7.352 8.30933 7.18133 8.64533 7 9.008C6.82933 9.37067 6.65333 9.74933 6.472 10.144C6.29067 10.528 6.12 10.896 5.96 11.248C5.81067 11.5893 5.672 11.904 5.544 12.192C5.416 12.4693 5.32 12.688 5.256 12.848H4.296ZM15.1065 2.48C15.1065 2.704 15.0638 2.912 14.9785 3.104C14.9038 3.296 14.8025 3.47733 14.6745 3.648C14.5465 3.808 14.3972 3.96267 14.2265 4.112C14.0665 4.26133 13.8958 4.40533 13.7145 4.544C13.4372 4.768 13.2078 4.96533 13.0265 5.136C12.8558 5.30667 12.7172 5.456 12.6105 5.584C12.5145 5.712 12.4452 5.82933 12.4025 5.936C12.3705 6.04267 12.3545 6.144 12.3545 6.24H15.4105V7.008H11.4425C11.4318 6.95467 11.4265 6.90133 11.4265 6.848C11.4265 6.79467 11.4265 6.74133 11.4265 6.688C11.4265 6.368 11.4798 6.08533 11.5865 5.84C11.6932 5.584 11.8265 5.35467 11.9865 5.152C12.1572 4.93867 12.3438 4.74667 12.5465 4.576C12.7492 4.39467 12.9465 4.21333 13.1385 4.032C13.2878 3.904 13.4265 3.78667 13.5545 3.68C13.6825 3.56267 13.7945 3.44533 13.8905 3.328C13.9865 3.2 14.0612 3.06667 14.1145 2.928C14.1785 2.78933 14.2105 2.62933 14.2105 2.448C14.2105 2.096 14.1038 1.856 13.8905 1.728C13.6772 1.58933 13.4265 1.52 13.1385 1.52C12.9572 1.52 12.7865 1.54667 12.6265 1.6C12.4772 1.64267 12.3385 1.70133 12.2105 1.776C12.0825 1.84 11.9705 1.90933 11.8745 1.984C11.7892 2.048 11.7252 2.10133 11.6825 2.144L11.2505 1.536C11.4318 1.344 11.6825 1.168 12.0025 1.008C12.3332 0.837332 12.7385 0.751999 13.2185 0.751999C13.8158 0.751999 14.2798 0.895999 14.6105 1.184C14.9412 1.472 15.1065 1.904 15.1065 2.48Z" fill="#6C6C75"/>
</svg>
