<svg width="14" height="14" viewBox="0 0 14 14" fill="none" xmlns="http://www.w3.org/2000/svg">
<path d="M13.256 11.028C13.4118 11.1844 13.5285 11.3752 13.5969 11.585C13.6652 11.7948 13.6831 12.0178 13.6492 12.2359C13.6153 12.4539 13.5306 12.6609 13.4018 12.8401C13.273 13.0194 13.1039 13.1657 12.908 13.2674C11.7887 13.8656 10.4846 14.0185 9.25733 13.6954C6 12.8754 1.318 8.19338 0.497996 4.93604C0.174878 3.70874 0.327768 2.40466 0.925996 1.28538C1.02766 1.08951 1.17402 0.92034 1.35323 0.791563C1.53244 0.662786 1.73945 0.578022 1.95751 0.544134C2.17557 0.510247 2.39855 0.528189 2.60838 0.596507C2.81822 0.664826 3.00902 0.7816 3.16533 0.937375L4.55533 2.32671C4.75578 2.52515 4.89142 2.77965 4.94438 3.0567C4.99733 3.33374 4.96513 3.62033 4.852 3.87871C4.7282 4.1686 4.55242 4.4334 4.33333 4.66004C2.744 6.24938 7.94466 11.45 9.53333 9.86004C9.76 9.64017 10.025 9.4637 10.3153 9.33938C10.5737 9.22606 10.8603 9.19375 11.1374 9.24672C11.4145 9.29968 11.669 9.43543 11.8673 9.63604L13.256 11.028Z" fill="#C07E29"/>
</svg>
