<svg width="12" height="15" viewBox="0 0 12 15" fill="none" xmlns="http://www.w3.org/2000/svg">
<path d="M5.99999 14.1123C7.5876 13.4667 8.94439 12.3586 9.89407 10.932C10.8437 9.50531 11.3424 7.82602 11.3253 6.11226C11.3412 5.40272 11.2152 4.69717 10.9546 4.03701C10.694 3.37686 10.3042 2.77541 9.80803 2.26798C9.31183 1.76056 8.71925 1.35738 8.06509 1.08212C7.41093 0.806861 6.70837 0.66507 5.99865 0.66507C5.28894 0.66507 4.58638 0.806861 3.93222 1.08212C3.27806 1.35738 2.68548 1.76056 2.18928 2.26798C1.69308 2.77541 1.30326 3.37686 1.04271 4.03701C0.782151 4.69717 0.656111 5.40272 0.671988 6.11226C0.655096 7.82632 1.15417 9.50584 2.10435 10.9325C3.05453 12.3592 4.41187 13.4671 5.99999 14.1123ZM4.66665 6.11226C4.66665 5.84855 4.74485 5.59076 4.89136 5.3715C5.03787 5.15223 5.24611 4.98134 5.48974 4.88042C5.73338 4.7795 6.00147 4.7531 6.26011 4.80455C6.51875 4.85599 6.75633 4.98298 6.9428 5.16945C7.12927 5.35592 7.25626 5.5935 7.3077 5.85214C7.35915 6.11078 7.33274 6.37887 7.23183 6.6225C7.13091 6.86614 6.96001 7.07438 6.74075 7.22089C6.52148 7.36739 6.2637 7.44559 5.99999 7.44559C5.64637 7.44559 5.30723 7.30512 5.05718 7.05507C4.80713 6.80502 4.66665 6.46588 4.66665 6.11226Z" fill="#C07E29"/>
</svg>
