<svg width="14" height="15" viewBox="0 0 14 15" fill="none" xmlns="http://www.w3.org/2000/svg">
<path d="M11.8999 9.37296C12.0468 9.373 12.1901 9.32897 12.3093 9.24713C12.4285 9.16528 12.5177 9.04977 12.5641 8.91697L13.9641 4.91697C13.9992 4.81674 14.0087 4.71002 13.992 4.6056C13.9752 4.50118 13.9326 4.40204 13.8678 4.31636C13.8029 4.23068 13.7176 4.16091 13.6188 4.1128C13.5201 4.06468 13.4108 4.03961 13.2998 4.03963H3.49996V1.37297C3.49996 1.19615 3.42621 1.02659 3.29494 0.901561C3.16366 0.776537 2.98562 0.706299 2.79997 0.706299H0.699992C0.514342 0.706299 0.336297 0.776537 0.205023 0.901561C0.0737489 1.02659 0 1.19615 0 1.37297C0 1.54978 0.0737489 1.71935 0.205023 1.84437C0.336297 1.96939 0.514342 2.03963 0.699992 2.03963H2.09997V11.373C2.09997 11.5498 2.17372 11.7193 2.305 11.8444C2.43627 11.9694 2.61432 12.0396 2.79997 12.0396H11.1999C11.3855 12.0396 11.5636 11.9694 11.6948 11.8444C11.8261 11.7193 11.8999 11.5498 11.8999 11.373C11.8999 11.1962 11.8261 11.0266 11.6948 10.9016C11.5636 10.7765 11.3855 10.7063 11.1999 10.7063H3.49996V9.37296H11.8999ZM3.14996 12.7063C3.35763 12.7063 3.56063 12.7649 3.7333 12.8748C3.90597 12.9847 4.04055 13.1409 4.12002 13.3236C4.1995 13.5063 4.22029 13.7074 4.17977 13.9014C4.13926 14.0954 4.03926 14.2736 3.89242 14.4134C3.74557 14.5533 3.55848 14.6485 3.3548 14.6871C3.15113 14.7257 2.94001 14.7059 2.74815 14.6302C2.55629 14.5545 2.3923 14.4263 2.27693 14.2619C2.16156 14.0974 2.09997 13.9041 2.09997 13.7063C2.09997 13.4411 2.2106 13.1867 2.40751 12.9992C2.60442 12.8117 2.87149 12.7063 3.14996 12.7063ZM10.1499 12.7063C10.3575 12.7063 10.5605 12.7649 10.7332 12.8748C10.9059 12.9847 11.0405 13.1409 11.1199 13.3236C11.1994 13.5063 11.2202 13.7074 11.1797 13.9014C11.1392 14.0954 11.0392 14.2736 10.8923 14.4134C10.7455 14.5533 10.5584 14.6485 10.3547 14.6871C10.151 14.7257 9.93993 14.7059 9.74806 14.6302C9.5562 14.5545 9.39222 14.4263 9.27685 14.2619C9.16147 14.0974 9.09989 13.9041 9.09989 13.7063C9.09989 13.4411 9.21051 13.1867 9.40742 12.9992C9.60434 12.8117 9.8714 12.7063 10.1499 12.7063Z" fill="white"/>
</svg>
