<svg width="16" height="16" viewBox="0 0 16 16" fill="none" xmlns="http://www.w3.org/2000/svg">
<path d="M14.75 5.75H12.5V3.5C12.4905 3.3048 12.4131 3.11907 12.281 2.975L10.031 0.725C9.88585 0.59007 9.6979 0.510431 9.5 0.5H4.25C4.05109 0.5 3.86032 0.579018 3.71967 0.71967C3.57902 0.860322 3.5 1.05109 3.5 1.25V5.75H1.25C1.05109 5.75 0.860322 5.82902 0.71967 5.96967C0.579018 6.11032 0.5 6.30109 0.5 6.5V12.5C0.5 12.6989 0.579018 12.8897 0.71967 13.0303C0.860322 13.171 1.05109 13.25 1.25 13.25H3.5V14.75C3.5 14.9489 3.57902 15.1397 3.71967 15.2803C3.86032 15.421 4.05109 15.5 4.25 15.5H11.75C11.9489 15.5 12.1397 15.421 12.2803 15.2803C12.421 15.1397 12.5 14.9489 12.5 14.75V13.25H14.75C14.9489 13.25 15.1397 13.171 15.2803 13.0303C15.421 12.8897 15.5 12.6989 15.5 12.5V6.5C15.5 6.30109 15.421 6.11032 15.2803 5.96967C15.1397 5.82902 14.9489 5.75 14.75 5.75ZM11 14H5V11.75H11V14ZM11 5.75H5V2H8.75V3.5C8.75 3.69891 8.82902 3.88968 8.96967 4.03033C9.11032 4.17098 9.30109 4.25 9.5 4.25H11V5.75Z" fill="#C07E29"/>
</svg>
