<svg width="13" height="13" viewBox="0 0 13 13" fill="none" xmlns="http://www.w3.org/2000/svg">
<path d="M7.3125 8.9375H4.875C4.875 6.5 6.175 5.6875 7.06875 5.2C7.39375 5.0375 7.6375 4.875 7.8 4.7125C8.20625 4.30625 8.04375 3.7375 7.9625 3.575C7.71875 3.00625 7.15 2.4375 6.09375 2.4375C4.3875 2.4375 4.0625 3.98125 4.0625 4.30625L1.625 3.98125C1.7875 2.6 3.00625 0 6.09375 0C7.9625 0 9.5875 1.05625 10.2375 2.6C10.8063 3.98125 10.5625 5.44375 9.5875 6.41875C9.18125 6.825 8.69375 7.06875 8.2875 7.3125C7.55625 7.71875 7.3125 8.125 7.3125 8.9375Z" fill="#C07E29"/>
<path d="M7.71875 11.375C7.71875 12.2728 6.99156 13 6.09375 13C5.19594 13 4.46875 12.2728 4.46875 11.375C4.46875 10.4772 5.19594 9.75 6.09375 9.75C6.99156 9.75 7.71875 10.4772 7.71875 11.375Z" fill="#C07E29"/>
</svg>
