<svg width="14" height="14" viewBox="0 0 14 14" fill="none" xmlns="http://www.w3.org/2000/svg">
<path d="M6.99992 0.281097C5.68138 0.281097 4.39245 0.672091 3.29612 1.40463C2.19979 2.13718 1.34531 3.17837 0.840725 4.39654C0.336141 5.61472 0.204118 6.95516 0.461353 8.24837C0.718588 9.54157 1.35353 10.7295 2.28588 11.6618C3.21823 12.5942 4.40611 13.2291 5.69932 13.4863C6.99253 13.7436 8.33297 13.6115 9.55114 13.107C10.7693 12.6024 11.8105 11.7479 12.5431 10.6516C13.2756 9.55524 13.6666 8.26631 13.6666 6.94776C13.6666 6.07229 13.4941 5.20538 13.1591 4.39654C12.8241 3.5877 12.333 2.85278 11.714 2.23372C11.0949 1.61466 10.36 1.1236 9.55114 0.788567C8.74231 0.453536 7.8754 0.281097 6.99992 0.281097ZM10.3333 7.61443H6.99992C6.82311 7.61443 6.65354 7.54419 6.52852 7.41917C6.40349 7.29414 6.33325 7.12458 6.33325 6.94776V2.94776C6.33325 2.77095 6.40349 2.60138 6.52852 2.47636C6.65354 2.35134 6.82311 2.2811 6.99992 2.2811C7.17673 2.2811 7.3463 2.35134 7.47133 2.47636C7.59635 2.60138 7.66659 2.77095 7.66659 2.94776V6.2811H10.3333C10.5101 6.2811 10.6796 6.35134 10.8047 6.47636C10.9297 6.60138 10.9999 6.77095 10.9999 6.94776C10.9999 7.12458 10.9297 7.29414 10.8047 7.41917C10.6796 7.54419 10.5101 7.61443 10.3333 7.61443Z" fill="#C07E29"/>
</svg>
