<svg width="21" height="24" viewBox="0 0 21 24" fill="none" xmlns="http://www.w3.org/2000/svg">
<path d="M10.1053 0C4.52209 0 0 0.631599 0 5.05262V17.6842C0 18.8021 0.492632 19.7937 1.26314 20.4884V22.7369C1.26314 23.4316 1.83156 24 2.52628 24H3.78948C4.49053 24 5.05262 23.4316 5.05262 22.7369V21.4737H15.1579V22.7369C15.1579 23.4316 15.72 24 16.421 24H17.6842C18.3789 24 18.9473 23.4316 18.9473 22.7369V20.4885C19.7178 19.7937 20.2105 18.8021 20.2105 17.6842V5.05262C20.2105 0.631599 15.6884 0 10.1053 0ZM4.42108 18.9474C3.37263 18.9474 2.52634 18.1011 2.52634 17.0526C2.52634 16.0042 3.37263 15.1579 4.42108 15.1579C5.46952 15.1579 6.31581 16.0042 6.31581 17.0526C6.31581 18.1011 5.46946 18.9474 4.42108 18.9474ZM15.7895 18.9474C14.7411 18.9474 13.8948 18.1011 13.8948 17.0526C13.8948 16.0042 14.7411 15.1579 15.7895 15.1579C16.8379 15.1579 17.6842 16.0042 17.6842 17.0526C17.6842 18.1011 16.8379 18.9474 15.7895 18.9474ZM17.6842 11.3684H2.52634V5.05262H17.6842V11.3684Z" fill="#C07E29"/>
</svg>
