<svg width="34" height="32" viewBox="0 0 34 32" fill="none" xmlns="http://www.w3.org/2000/svg">
<path d="M31.4533 3.72819C29.2794 1.25329 26.278 0.197632 23.0489 0.197632C17.3291 0.197632 12.6756 4.85078 12.6756 10.5703C12.0917 10.5981 11.3987 10.4492 10.7733 10.4481C10.1598 10.4471 9.54935 10.4613 8.94041 10.5464C6.48132 10.8854 4.22045 12.1042 2.5743 13.9784C0.912488 15.8702 0 18.3002 0 20.8208V31.8024H10.9789C16.6264 31.8024 21.377 27.0697 21.3523 21.4126C21.9109 21.5045 22.4779 21.5526 23.0489 21.5526H34V10.5704C34 8.04977 33.1148 5.6199 31.4533 3.72819ZM19.3601 21.4297C19.3601 26.006 15.5545 29.8102 10.9789 29.8102H1.98953V20.8208C1.98953 18.427 3.05256 16.1082 4.84646 14.527C6.58996 12.9904 8.69982 12.4403 10.9789 12.4403C13.3635 12.4403 15.6629 13.4788 17.243 15.2624C18.7949 17.0142 19.3601 19.1313 19.3601 21.4297ZM32.0377 19.5604H23.0489C22.441 19.5604 21.8387 19.4956 21.2511 19.3674C20.7338 15.6678 18.1599 12.4485 14.6678 11.1228C14.6678 8.88231 15.2276 6.79669 16.7261 5.07504C18.3082 3.2573 20.6381 2.18982 23.0489 2.18982C25.328 2.18982 27.4379 2.74026 29.1811 4.27703C30.9747 5.85817 32.0377 8.17674 32.0377 10.5703V19.5604Z" fill="#4E4A46"/>
<path d="M21.2554 10.767H23.344V16.5359H25.3362V8.77478H21.2554V10.767Z" fill="#D6A34A"/>
<path d="M23.3069 4.74939H25.2397V6.74158H23.3069V4.74939Z" fill="#D6A34A"/>
<path d="M10.6749 14.943C8.80522 14.943 7.24414 16.5055 7.24414 18.3738H9.23633C9.23633 17.5908 9.89023 16.9352 10.6749 16.9352C11.4681 16.9352 12.1135 17.5805 12.1135 18.3738C12.1135 18.9535 11.7685 19.4739 11.2346 19.6997C10.2895 20.0995 9.67879 21.009 9.67879 22.0168V23.025H11.671V22.0168C11.671 21.8111 11.8043 21.6218 12.0106 21.5345C13.2833 20.9962 14.1056 19.7556 14.1056 18.3738C14.1057 16.4821 12.5666 14.943 10.6749 14.943Z" fill="#D6A34A"/>
<path d="M9.67871 25.0768H11.6709V27.069H9.67871V25.0768Z" fill="#D6A34A"/>
</svg>
