<svg width="32" height="30" viewBox="0 0 32 30" fill="none" xmlns="http://www.w3.org/2000/svg">
<path d="M31.0625 6.5625H23.9375V1C23.9375 0.48225 23.5177 0.0625 23 0.0625H0.9375C0.41975 0.0625 0 0.48225 0 1V25.25C0 27.8347 2.10281 29.9375 4.6875 29.9375H27.3125C29.8972 29.9375 32 27.8347 32 25.25V7.5C32 6.98225 31.5802 6.5625 31.0625 6.5625ZM4.6875 28.0625C3.13669 28.0625 1.875 26.8008 1.875 25.25V1.9375H22.0625C22.0625 26.7166 22.0507 25.339 22.084 25.6923C22.1655 26.5614 22.4896 27.381 23.0022 28.0625H4.6875ZM30.125 25.25C30.125 26.8008 28.8633 28.0625 27.3125 28.0625C27.1021 28.0625 26.9566 28.0625 26.75 28.0625C25.1992 28.0625 23.9375 26.8008 23.9375 25.25V8.4375H30.125V25.25Z" fill="#4E4A46"/>
<path d="M19 4.5625H5C4.48225 4.5625 4.0625 4.98225 4.0625 5.5C4.0625 6.01775 4.48225 6.4375 5 6.4375H19C19.5177 6.4375 19.9375 6.01775 19.9375 5.5C19.9375 4.98225 19.5177 4.5625 19 4.5625Z" fill="#D6A34A"/>
<path d="M19 8.5625H5C4.48225 8.5625 4.0625 8.98225 4.0625 9.5C4.0625 10.0178 4.48225 10.4375 5 10.4375H19C19.5177 10.4375 19.9375 10.0178 19.9375 9.5C19.9375 8.98225 19.5177 8.5625 19 8.5625Z" fill="#D6A34A"/>
<path d="M19 23.5625H5C4.48225 23.5625 4.0625 23.9822 4.0625 24.5C4.0625 25.0178 4.48225 25.4375 5 25.4375H19C19.5177 25.4375 19.9375 25.0178 19.9375 24.5C19.9375 23.9822 19.5177 23.5625 19 23.5625Z" fill="#D6A34A"/>
<path d="M19 12.5625H12C11.4822 12.5625 11.0625 12.9822 11.0625 13.5V20.5C11.0625 21.0177 11.4822 21.4375 12 21.4375H19C19.5177 21.4375 19.9375 21.0177 19.9375 20.5V13.5C19.9375 12.9822 19.5177 12.5625 19 12.5625ZM18.0625 19.5625H12.9375V14.4375H18.0625V19.5625Z" fill="#D6A34A"/>
<path d="M5 15.9375H8C8.51775 15.9375 8.9375 15.5178 8.9375 15C8.9375 14.4822 8.51775 14.0625 8 14.0625H5C4.48225 14.0625 4.0625 14.4822 4.0625 15C4.0625 15.5178 4.48225 15.9375 5 15.9375Z" fill="#D6A34A"/>
<path d="M5 19.9375H8C8.51775 19.9375 8.9375 19.5178 8.9375 19C8.9375 18.4822 8.51775 18.0625 8 18.0625H5C4.48225 18.0625 4.0625 18.4822 4.0625 19C4.0625 19.5178 4.48225 19.9375 5 19.9375Z" fill="#D6A34A"/>
</svg>
