<svg width="40" height="40" viewBox="0 0 40 40" fill="none" xmlns="http://www.w3.org/2000/svg">
<path d="M32.0209 7.97914C28.8099 4.76833 24.5409 3 20 3C15.4591 3 11.1901 4.76833 7.97914 7.97914C4.76833 11.1901 3 15.4591 3 20C3 24.5409 4.76833 28.8099 7.97914 32.0209C11.1901 35.2317 15.4591 37 20 37C24.5409 37 28.8099 35.2317 32.0209 32.0209C35.2317 28.8099 37 24.5409 37 20C37 15.4591 35.2317 11.1901 32.0209 7.97914ZM20 35.0078C11.7247 35.0078 4.99219 28.2753 4.99219 20C4.99219 11.7247 11.7247 4.99219 20 4.99219C28.2753 4.99219 35.0078 11.7247 35.0078 20C35.0078 28.2753 28.2753 35.0078 20 35.0078Z" fill="#4E4A46"/>
<path d="M20 7C12.8318 7 7 12.8318 7 20C7 27.1682 12.8318 33 20 33C27.1682 33 33 27.1682 33 20C33 12.8318 27.1682 7 20 7ZM20 30.9793C13.946 30.9793 9.02073 26.054 9.02073 20C9.02073 13.946 13.946 9.02073 20 9.02073C26.054 9.02073 30.9793 13.946 30.9793 20C30.9793 26.054 26.054 30.9793 20 30.9793Z" fill="#D6A34A"/>
<path d="M21.0976 17H17V19.0761H18.9024V27H23V24.9239H21.0976V17Z" fill="#D6A34A"/>
<path d="M19 13H21V15H19V13Z" fill="#D6A34A"/>
</svg>
