<svg width="40" height="40" viewBox="0 0 40 40" fill="none" xmlns="http://www.w3.org/2000/svg">
<path d="M26.0771 2H6.16992V37H32.8301V8.75302L26.0771 2ZM26.6777 5.50089L29.3292 8.15234H26.6777V5.50089ZM8.2207 34.9492V4.05078H24.627V10.2031H30.7793V34.9492H8.2207Z" fill="#4E4A46"/>
<path d="M25.9541 14.2041L23.5531 15.5903C23.242 15.3752 22.9157 15.186 22.5761 15.0238V12.2539H16.4238V15.0238C16.0843 15.186 15.758 15.3752 15.4468 15.5903L13.0459 14.2041L9.96973 19.5322L12.3495 20.9062C12.3312 21.1046 12.3222 21.2959 12.3222 21.4824C12.3222 21.6688 12.3312 21.8601 12.3495 22.0586L9.96973 23.4325L13.0459 28.7606L15.4469 27.3745C15.7581 27.5895 16.0843 27.7787 16.4239 27.9409V30.7109H22.5762V27.941C22.9158 27.7788 23.242 27.5896 23.5531 27.3746L25.9541 28.7607L29.0303 23.4326L26.6505 22.0586C26.6688 21.8602 26.6778 21.669 26.6778 21.4824C26.6778 21.2959 26.6688 21.1046 26.6505 20.9062L29.0303 19.5322L25.9541 14.2041ZM24.5312 20.5495C24.5965 20.9038 24.6269 21.2002 24.6269 21.4824C24.6269 21.7646 24.5965 22.0611 24.5312 22.4154L24.3999 23.1274L26.2289 24.1833L25.2035 25.9593L23.3583 24.8941L22.8073 25.3642C22.3289 25.7724 21.7906 26.0845 21.2073 26.2919L20.5254 26.5343V28.6602H18.4746V26.5343L17.7927 26.2919C17.2094 26.0846 16.6711 25.7725 16.1926 25.3642L15.6416 24.8942L13.7966 25.9593L12.7712 24.1833L14.6001 23.1274L14.4689 22.4154C14.4034 22.0609 14.373 21.7645 14.373 21.4824C14.373 21.2004 14.4034 20.9039 14.4688 20.5495L14.6 19.8375L12.7711 18.7815L13.7965 17.0055L15.6416 18.0707L16.1925 17.6007C16.6711 17.1925 17.2094 16.8803 17.7926 16.673L18.4745 16.4306V14.3047H20.5253V16.4306L21.2073 16.673C21.7905 16.8803 22.3288 17.1925 22.8072 17.6006L23.3582 18.0707L25.2034 17.0055L26.2288 18.7815L24.3998 19.8375L24.5312 20.5495Z" fill="#D6A34A"/>
<path d="M19.5 18.4062C17.8038 18.4062 16.4238 19.7862 16.4238 21.4824C16.4238 23.1786 17.8038 24.5586 19.5 24.5586C21.1962 24.5586 22.5762 23.1786 22.5762 21.4824C22.5762 19.7862 21.1962 18.4062 19.5 18.4062ZM19.5 22.5078C18.9346 22.5078 18.4746 22.0478 18.4746 21.4824C18.4746 20.917 18.9346 20.457 19.5 20.457C20.0654 20.457 20.5254 20.917 20.5254 21.4824C20.5254 22.0478 20.0654 22.5078 19.5 22.5078Z" fill="#D6A34A"/>
</svg>
