<svg width="40" height="40" viewBox="0 0 40 40" fill="none" xmlns="http://www.w3.org/2000/svg">
<g clip-path="url(#clip0)">
<path d="M30.93 23.0722C31.1022 22.5114 31.232 21.9323 31.3165 21.3389L32.6354 21.058C34.927 20.5699 36.3943 18.3085 35.9063 16.0169L35.3057 13.197L32.8281 13.7247C31.9018 13.922 31.0868 14.4112 30.4831 15.1206C30.2783 14.6437 30.0424 14.1809 29.7761 13.7365L30.5956 12.7027C31.3007 11.8132 31.6171 10.7025 31.4868 9.57498C31.3565 8.4475 30.7949 7.43829 29.9054 6.73322L27.646 4.9422L26.0724 6.92723C25.3673 7.81665 25.0509 8.92744 25.1812 10.0549C25.3089 11.1594 25.8512 12.1496 26.7093 12.8523C28.5143 14.6334 29.5492 17.1342 29.5492 19.7191C29.5492 24.9897 25.2612 29.2777 19.9906 29.2777C14.72 29.2777 10.4321 24.9896 10.4321 19.719C10.4321 17.1006 11.4926 14.6004 13.3527 12.8004C14.1748 12.1012 14.6941 11.1324 14.8186 10.0549C14.949 8.92738 14.6325 7.81665 13.9274 6.92717L12.3538 4.94214L10.0945 6.73316C8.25844 8.18861 7.94885 10.8665 9.40431 12.7025L10.2211 13.7329C9.95264 14.1756 9.7149 14.6361 9.50853 15.1107C8.90566 14.4065 8.09373 13.921 7.17181 13.7247L4.69429 13.197L4.09369 16.0169C3.60565 18.3085 5.0729 20.5699 7.3645 21.058L8.66434 21.3348C8.74867 21.9286 8.87831 22.5079 9.05048 23.0689C8.15905 22.9301 7.21724 23.0712 6.36596 23.5359L4.14244 24.7494L5.52373 27.2801C6.06748 28.2764 6.96663 29.0013 8.05558 29.3212C8.45239 29.4378 8.85697 29.4955 9.25936 29.4955C9.96124 29.4955 10.656 29.3198 11.2892 28.9742L12.4675 28.3311C12.8432 28.6598 13.2406 28.9641 13.6571 29.242C12.8497 29.7114 12.2225 30.4289 11.8644 31.3081L10.9089 33.6542L13.579 34.7416C14.0967 34.9525 14.6395 35.0578 15.1821 35.0578C15.7413 35.0578 16.3003 34.9459 16.8312 34.7224C17.8771 34.2818 18.689 33.4603 19.1171 32.4091L19.6284 31.1538C19.7488 31.1575 19.8694 31.1601 19.9907 31.1601C20.1182 31.1601 20.2449 31.1572 20.3714 31.1531L20.883 32.4092C21.3111 33.4604 22.1229 34.2819 23.1689 34.7224C23.6998 34.946 24.2587 35.0579 24.8179 35.0579C25.3605 35.0579 25.9034 34.9525 26.421 34.7417L29.0912 33.6543L28.1357 31.3082C27.7762 30.4254 27.1453 29.7056 26.3331 29.2364C26.7491 28.9582 27.1458 28.6536 27.5211 28.3249L28.7109 28.9742C29.3442 29.3199 30.0388 29.4956 30.7407 29.4956C31.143 29.4956 31.5477 29.4379 31.9445 29.3213C33.0334 29.0013 33.9326 28.2764 34.4763 27.2802L35.8576 24.7494L33.634 23.5359C32.7766 23.0678 31.8272 22.9281 30.93 23.0722ZM17.3737 31.699C17.1353 32.2845 16.6831 32.7421 16.1005 32.9875C15.5178 33.2329 14.8745 33.2367 14.2891 32.9983L13.3623 32.6208L13.6077 32.0181C13.8461 31.4326 14.2984 30.975 14.8809 30.7296C15.4635 30.4842 16.1068 30.4803 16.6924 30.7189L17.6192 31.0964L17.3737 31.699ZM26.6378 32.6208L25.7109 32.9983C25.1254 33.2367 24.4821 33.233 23.8995 32.9876C23.3169 32.7422 22.8647 32.2846 22.6263 31.6991L22.3808 31.0964L23.3077 30.7189C23.8931 30.4805 24.5364 30.4843 25.1191 30.7297C25.7017 30.9751 26.1539 31.4327 26.3923 32.0182L26.6378 32.6208ZM31.7278 16.5923C32.0719 16.062 32.6019 15.6974 33.2202 15.5658L33.8567 15.4302L34.0652 16.409C34.1969 17.0273 34.0799 17.6599 33.7358 18.1902C33.3917 18.7206 32.8617 19.0852 32.2434 19.2169L31.6069 19.3525L31.3985 18.3736C31.2668 17.7553 31.3837 17.1227 31.7278 16.5923ZM27.5476 8.09656L27.9518 7.58662L28.7361 8.20831C29.2315 8.60104 29.5443 9.16318 29.617 9.79114C29.6896 10.4192 29.5133 11.0378 29.1206 11.5332L28.7163 12.0432L27.9321 11.4215C26.9093 10.6108 26.7369 9.11919 27.5476 8.09656ZM10.3831 9.79107C10.4557 9.16311 10.7685 8.60097 11.264 8.20825L12.0482 7.58656L12.4524 8.0965C13.1885 9.02495 13.114 10.3398 12.3288 11.1809C12.2479 11.2539 12.1684 11.328 12.0899 11.4031C12.0825 11.4092 12.0755 11.4155 12.068 11.4214L11.2837 12.0431L10.8795 11.5331C10.4867 11.0378 10.3104 10.4191 10.3831 9.79107ZM7.7566 19.2168C7.1383 19.0851 6.60829 18.7206 6.26419 18.1902C5.92009 17.6598 5.80307 17.0272 5.93477 16.4089L6.14328 15.4301L6.77977 15.5657C7.39807 15.6974 7.92815 16.062 8.27225 16.5923C8.61634 17.1226 8.7333 17.7552 8.60166 18.3736L8.39322 19.3524L7.7566 19.2168ZM10.3873 27.3219C9.83242 27.6248 9.19285 27.6934 8.58623 27.5152C7.97966 27.337 7.47889 26.9332 7.17595 26.3783L6.69651 25.4999L7.26775 25.1881C7.82273 24.8853 8.4623 24.8166 9.06887 24.9948C9.67543 25.173 10.1762 25.5767 10.4791 26.1317L10.9586 27.0101L10.3873 27.3219ZM32.824 26.3783C32.5211 26.9332 32.0203 27.3369 31.4137 27.5152C30.8072 27.6935 30.1676 27.6248 29.6126 27.3219L29.0414 27.0101L29.5208 26.1317C29.8237 25.5767 30.3245 25.173 30.9311 24.9948C31.5377 24.8165 32.1773 24.8852 32.7322 25.1881L33.3034 25.4999L32.824 26.3783Z" fill="#4E4A46"/>
<path d="M16.0242 21.0461L15.5439 25.8877L20.0001 23.9345L24.4564 25.8875L23.9758 21.0458L27.2102 17.4111L22.457 16.3721L19.9997 12.1727L17.5427 16.3722L12.7896 17.4115L16.0242 21.0461ZM18.7508 18.0349L19.9998 15.9001L21.249 18.0349L23.6653 18.5631L22.021 20.4107L22.2654 22.8721L20 21.8793L17.7346 22.8722L17.9788 20.4109L16.3344 18.5633L18.7508 18.0349Z" fill="#D6A34A"/>
</g>
<defs>
<clipPath id="clip0">
<rect width="32" height="32" fill="white" transform="translate(4 4)"/>
</clipPath>
</defs>
</svg>
