<svg width="57" height="57" viewBox="0 0 57 57" fill="none" xmlns="http://www.w3.org/2000/svg">
<path d="M56.302 52.9518L42.5988 39.2486C45.9955 35.1073 48.0429 29.8029 48.0429 24.0214C48.0429 10.7602 37.2827 0 24.0214 0C10.7486 0 0 10.7602 0 24.0214C0 37.2827 10.7486 48.0429 24.0214 48.0429C29.8029 48.0429 35.0957 46.0071 39.2369 42.6104L52.9402 56.302C53.8708 57.2327 55.3714 57.2327 56.302 56.302C57.2327 55.3831 57.2327 53.8708 56.302 52.9518ZM24.0214 43.2618C13.4008 43.2618 4.76939 34.6304 4.76939 24.0214C4.76939 13.4124 13.4008 4.76939 24.0214 4.76939C34.6304 4.76939 43.2735 13.4124 43.2735 24.0214C43.2735 34.6304 34.6304 43.2618 24.0214 43.2618Z" fill="white"/>
</svg>
